<svg xmlns="http://www.w3.org/2000/svg" xmlns:xlink="http://www.w3.org/1999/xlink" viewBox="0 0 48.19 48.21"><defs><linearGradient id="a" x1="829.07" y1="659.05" x2="831.05" y2="654.56" gradientTransform="matrix(1, 0, 0, -1, 196.31, 754.34)" gradientUnits="userSpaceOnUse"><stop offset="0"/><stop offset="0.41" stop-color="#c7c7c7"/><stop offset="0.56" stop-color="#a1a1a1" stop-opacity="0.61"/><stop offset="0.98" stop-color="#fff" stop-opacity="0"/></linearGradient><radialGradient id="b" cx="299.63" cy="1377.27" r="1" gradientTransform="matrix(-0.02, 0.26, 1.01, 0.09, -366, -97.04)" gradientUnits="userSpaceOnUse"><stop offset="0" stop-color="#c4c4c4"/><stop offset="0.47" stop-color="#ddd" stop-opacity="0.57"/><stop offset="0.78" stop-color="#fff" stop-opacity="0"/></radialGradient><linearGradient id="c" x1="841.24" y1="680.57" x2="840.5" y2="634.91" gradientTransform="matrix(1, 0, 0, -1, 196.31, 754.34)" gradientUnits="userSpaceOnUse"><stop offset="0" stop-color="#fff"/><stop offset="0" stop-color="#fad6fd" stop-opacity="0.8"/><stop offset="0.65" stop-color="#0c0016" stop-opacity="0.29"/><stop offset="0.69" stop-color="#a38da5" stop-opacity="0.58"/><stop offset="0.73" stop-color="#ab6bb0" stop-opacity="0.55"/><stop offset="0.8" stop-color="#140015" stop-opacity="0.09"/><stop offset="1" stop-color="#3b0040" stop-opacity="0"/></linearGradient><linearGradient id="d" x1="849.54" y1="661.42" x2="853.98" y2="649.46" gradientTransform="matrix(1, 0, 0, -1, 196.31, 754.34)" gradientUnits="userSpaceOnUse"><stop offset="0.28" stop-color="#f9f3fb"/><stop offset="0.42" stop-color="#e2e2e2" stop-opacity="0.57"/><stop offset="0.59" stop-color="#fff" stop-opacity="0"/><stop offset="1" stop-opacity="0"/></linearGradient><radialGradient id="e" cx="109.37" cy="1107.34" r="1" gradientTransform="matrix(-0.04, 0.33, 1.69, 0.2, -821.52, -161.57)" gradientUnits="userSpaceOnUse"><stop offset="0.17" stop-color="#c4c4c4"/><stop offset="0.56" stop-color="#ddd" stop-opacity="0.57"/><stop offset="0.78" stop-color="#fff" stop-opacity="0"/></radialGradient></defs><path d="M1020.77,102.59a1.79,1.79,0,0,1,.73-2.9l9.62-3.36a2.64,2.64,0,1,1,1.32,5.09l-10.05,1.72A1.79,1.79,0,0,1,1020.77,102.59Z" transform="translate(-1012.43 -74.27)"/><path d="M1020.77,102.59a1.79,1.79,0,0,1,.73-2.9l9.62-3.36a2.64,2.64,0,1,1,1.32,5.09l-10.05,1.72A1.79,1.79,0,0,1,1020.77,102.59Z" transform="translate(-1012.43 -74.27)" fill="url(#a)"/><ellipse cx="1023.1" cy="99.67" rx="1.33" ry="0.34" transform="translate(-1011.67 132.65) rotate(-11.55)" fill="#302f2f"/><ellipse cx="1023.1" cy="99.67" rx="1.33" ry="0.34" transform="translate(-1011.67 132.65) rotate(-11.55)" fill="url(#b)"/><path d="M1029.66,100.82h1.46l-2.13,2.73.34.26-.34-.26a1.24,1.24,0,0,1-.57.42c-.89.3-2.9,1-4.67,1.48a22.31,22.31,0,0,1-2.28.56,3.29,3.29,0,0,1-.38,0,1,1,0,0,1,.11-.39c0-.09.14-.17.53-.47a1.25,1.25,0,0,1,.22-.1,4.27,4.27,0,0,1,.5-.16c.41-.12.92-.24,1.48-.36,1.11-.24,2.38-.47,3.25-.62a2.14,2.14,0,0,0,1.7-1.51l.37-1.31A.43.43,0,0,1,1029.66,100.82Zm-8.81,5.23Z" transform="translate(-1012.43 -74.27)" stroke="#000" stroke-width="0.85"/><ellipse cx="24.1" cy="43.14" rx="24.1" ry="5.07" fill="#e4e4e4"/><path d="M1044.84,105.65l5-.43s3.75-1.9,3.1-.21-2,4.49-1.42,6.4a8.62,8.62,0,0,0,2.71,3.89,1.06,1.06,0,0,1-.31,1.78l-8.83,2.71Z" transform="translate(-1012.43 -74.27)"/><path d="M1031.32,78.25a4.22,4.22,0,0,1,4.3-4l13.41.26a4.23,4.23,0,0,1,4.14,4.17l.33,23.78a2.54,2.54,0,0,1-2.53,2.57H1048a1.69,1.69,0,0,0-1.69,1.69v11.42a1.69,1.69,0,0,1-1.69,1.69H1022.3a1.69,1.69,0,0,1-1.69-1.69v-11.7a1.68,1.68,0,0,1,1.38-1.66l5.91-1.08a2.53,2.53,0,0,0,2.08-2.35Z" transform="translate(-1012.43 -74.27)" fill="#6c007d"/><path d="M1031.32,78.25a4.22,4.22,0,0,1,4.3-4l13.41.26a4.23,4.23,0,0,1,4.14,4.17l.33,23.78a2.54,2.54,0,0,1-2.53,2.57H1048a1.69,1.69,0,0,0-1.69,1.69v11.42a1.69,1.69,0,0,1-1.69,1.69H1022.3a1.69,1.69,0,0,1-1.69-1.69v-11.7a1.68,1.68,0,0,1,1.38-1.66l5.91-1.08a2.53,2.53,0,0,0,2.08-2.35Z" transform="translate(-1012.43 -74.27)" fill="url(#c)"/><path d="M1031.53,78.26a4,4,0,0,1,4.09-3.78l13.41.26a4,4,0,0,1,3.93,4l.33,23.78a2.32,2.32,0,0,1-2.32,2.36H1048a1.9,1.9,0,0,0-1.9,1.9v11.42a1.48,1.48,0,0,1-1.48,1.48H1022.3a1.48,1.48,0,0,1-1.48-1.48v-11.7A1.47,1.47,0,0,1,1022,105l5.91-1.08a2.75,2.75,0,0,0,2.25-2.55Z" transform="translate(-1012.43 -74.27)" fill="none" stroke="#000" stroke-width="0.42"/><path d="M1052.84,101.9a.42.42,0,0,1,.37-.23c.43,0,1,0,1.53.06h.21c-.15.16-.34.36-.56.62a18.5,18.5,0,0,0-2.5,4.19,4.27,4.27,0,0,1-.61,1c-.16.19-.25.2-.26.2s-.08,0-.2-.11a3.36,3.36,0,0,1-.41-.49l-.17-.24c-.1-.14-.2-.3-.31-.44a3.56,3.56,0,0,0-.59-.64,1.4,1.4,0,0,0-.86-.33,1.57,1.57,0,0,0-1,.43c-.42.36-.73.62-1,.8,0-.1,0-.2.06-.33s.05-.33.08-.53a1.18,1.18,0,0,1,.57-.62,3.93,3.93,0,0,1,1-.39c.39-.12,1.57-.34,2.41-.49a2.13,2.13,0,0,0,1.55-1.16l.66-1.34-.38-.19Zm2.47-.54h0Zm-9.17,5.66h0Zm.34.2h0Z" transform="translate(-1012.43 -74.27)" stroke="#000" stroke-width="0.85"/><path d="M1041.56,103.06a1.88,1.88,0,0,1,.94-3l10.32-3a2.78,2.78,0,1,1,1.08,5.43l-10.67,1.22A1.91,1.91,0,0,1,1041.56,103.06Z" transform="translate(-1012.43 -74.27)"/><path d="M1041.56,103.06a1.88,1.88,0,0,1,.94-3l10.32-3a2.78,2.78,0,1,1,1.08,5.43l-10.67,1.22A1.91,1.91,0,0,1,1041.56,103.06Z" transform="translate(-1012.43 -74.27)" fill="url(#d)"/><ellipse cx="1044.18" cy="99.96" rx="1.33" ry="0.26" transform="translate(-1013.84 109.64) rotate(-10.06)" fill="#302f2f"/><ellipse cx="1044.18" cy="99.96" rx="1.33" ry="0.26" transform="translate(-1013.84 109.64) rotate(-10.06)" fill="url(#e)"/></svg>