<svg xmlns="http://www.w3.org/2000/svg" xmlns:xlink="http://www.w3.org/1999/xlink" viewBox="0 0 58.62 35.53"><defs><linearGradient id="a" x1="468.83" y1="566.69" x2="548.74" y2="491.98" gradientTransform="matrix(1, 0, 0, -1, 196.31, 754.34)" gradientUnits="userSpaceOnUse"><stop offset="0" stop-color="#8a008d"/><stop offset="0.18" stop-color="#430044"/><stop offset="0.7"/><stop offset="1" stop-color="#bd00ff"/></linearGradient><linearGradient id="b" x1="684.68" y1="211.27" x2="696.1" y2="211.27" gradientUnits="userSpaceOnUse"><stop offset="0" stop-color="#8a008d"/><stop offset="0.21" stop-color="#430044"/><stop offset="1"/></linearGradient></defs><path d="M661.52,196.2a2.28,2.28,0,0,1,2.56-2.24,234.81,234.81,0,0,0,26.31,1.61A234.81,234.81,0,0,0,716.7,194a2.28,2.28,0,0,1,2.55,2.24v30.11a2.3,2.3,0,0,1-2.59,2.26,220.57,220.57,0,0,0-52.54,0,2.31,2.31,0,0,1-2.6-2.26Z" transform="translate(-661.08 -193.5)" fill="none" stroke-width="0.89" stroke="url(#a)"/><path d="M695.19,209.59a2,2,0,0,1,0,3.35l-7.42,4.85a2,2,0,0,1-3.09-1.68v-9.69a2,2,0,0,1,3.09-1.68Z" transform="translate(-661.08 -193.5)" fill="url(#b)"/></svg>