<svg xmlns="http://www.w3.org/2000/svg" xmlns:xlink="http://www.w3.org/1999/xlink" viewBox="0 0 57.73 34.65"><defs><linearGradient id="a" x1="468.83" y1="566.69" x2="548.74" y2="491.98" gradientTransform="matrix(1, 0, 0, -1, 196.31, 754.34)" gradientUnits="userSpaceOnUse"><stop offset="0" stop-color="#8a008d"/><stop offset="0.21" stop-color="#430044"/><stop offset="1"/></linearGradient></defs><path d="M661.52,196.2a2.29,2.29,0,0,1,2.56-2.25,231.84,231.84,0,0,0,26.31,1.62A231.84,231.84,0,0,0,716.7,194a2.28,2.28,0,0,1,2.55,2.25v30.1a2.29,2.29,0,0,1-2.59,2.26,220.57,220.57,0,0,0-52.54,0,2.3,2.3,0,0,1-2.6-2.26Z" transform="translate(-661.52 -193.94)" fill="url(#a)"/><path d="M696.6,209.59a2,2,0,0,1,0,3.34l-7.42,4.85a2,2,0,0,1-3.09-1.67v-9.7a2,2,0,0,1,3.09-1.67Z" transform="translate(-661.52 -193.94)" fill="#f3f3f3"/></svg>