<svg xmlns="http://www.w3.org/2000/svg" xmlns:xlink="http://www.w3.org/1999/xlink" viewBox="0 0 21.06 21.88"><defs><linearGradient id="a" x1="606.42" y1="349.69" x2="627.48" y2="349.69" gradientUnits="userSpaceOnUse"><stop offset="0" stop-color="#8a008d"/><stop offset="0.21" stop-color="#430044"/><stop offset="1"/></linearGradient></defs><path d="M612.77,339.92a2,2,0,0,1,1.85-1.17h4.67a2,2,0,0,1,1.84,1.17,5.35,5.35,0,0,1,2,.26,3.79,3.79,0,0,1,1.66,1.27,6.85,6.85,0,0,1,.91,2.33l.86,3.18.33,1,0,0c1.05,1.35.55,3.35-.45,7.36-.64,2.54-1,3.82-1.91,4.56s-2.26.74-4.89.74h-5.4c-2.63,0-3.94,0-4.89-.74s-1.27-2-1.9-4.56c-1-4-1.5-6-.45-7.36l0,0,.33-1,.87-3.18a6.86,6.86,0,0,1,.9-2.33,3.82,3.82,0,0,1,1.67-1.27A5.26,5.26,0,0,1,612.77,339.92Zm0,1.75a4,4,0,0,0-1.34.14,2,2,0,0,0-.89.68,6.18,6.18,0,0,0-.67,1.91l-.66,2.44a32.77,32.77,0,0,1,5-.21h5.4a32.92,32.92,0,0,1,5.05.21L624,344.4a6.62,6.62,0,0,0-.66-1.91,2,2,0,0,0-.9-.68,4,4,0,0,0-1.34-.14,2,2,0,0,1-1.84,1.16h-4.67A2,2,0,0,1,612.77,341.67Z" transform="translate(-606.42 -338.75)" fill-rule="evenodd" fill="url(#a)"/></svg>