<svg xmlns="http://www.w3.org/2000/svg" xmlns:xlink="http://www.w3.org/1999/xlink" viewBox="0 0 29.5 27.14"><defs><linearGradient id="a" x1="671.9" y1="221.2" x2="730.4" y2="189.78" gradientUnits="userSpaceOnUse"><stop offset="0" stop-color="#8a008d"/><stop offset="0.21" stop-color="#430044"/><stop offset="1"/></linearGradient></defs><path d="M693.16,211.27l11.37-10.33a1.85,1.85,0,0,0,.61-1.38,1.87,1.87,0,0,0-3.12-1.38l-11.63,10.57-11.64-10.57a1.86,1.86,0,0,0-2.5,2.76l11.37,10.33-11.37,10.32a1.86,1.86,0,0,0,2.5,2.76l11.64-10.57L702,224.35a1.87,1.87,0,0,0,3.12-1.38,1.85,1.85,0,0,0-.61-1.38Z" transform="translate(-675.64 -197.7)" fill="url(#a)"/></svg>