<svg xmlns="http://www.w3.org/2000/svg" xmlns:xlink="http://www.w3.org/1999/xlink" viewBox="0 0 17.04 20.29"><defs><linearGradient id="a" x1="681.87" y1="211.27" x2="698.91" y2="211.27" gradientUnits="userSpaceOnUse"><stop offset="0" stop-color="#8a008d"/><stop offset="0.21" stop-color="#430044"/><stop offset="1"/></linearGradient></defs><path d="M694.45,212.48A4.47,4.47,0,1,1,690,217,4.47,4.47,0,0,1,694.45,212.48ZM690,201.12a3.26,3.26,0,0,1,3.25,3.09v.16h4.06a.81.81,0,0,1,.09,1.61h-.78l-.48,5.95a5.46,5.46,0,0,0-1.67-.27,5.28,5.28,0,0,0-3.81,8.93h-3.28a3,3,0,0,1-3-2.8l-1-11.81h-.69a.81.81,0,0,1-.81-.72v-.09a.81.81,0,0,1,.71-.81h4.16A3.24,3.24,0,0,1,690,201.12Zm3,13.82,0-.05a.41.41,0,0,0-.47,0l0,.05-.05.05a.39.39,0,0,0,0,.46l.05.06,1.43,1.44-1.43,1.43-.05.06a.43.43,0,0,0,0,.46l.05,0,.06.05a.39.39,0,0,0,.46,0l0-.05,1.44-1.43,1.43,1.44.06,0a.39.39,0,0,0,.46,0l.06,0,0-.06a.39.39,0,0,0,0-.46l0-.06L695,217l1.44-1.44,0-.06a.43.43,0,0,0,0-.46l0-.05-.06-.05a.39.39,0,0,0-.46,0l-.05.05-1.44,1.43L693,214.94l0-.05Zm-3-12.2a1.64,1.64,0,0,0-1.62,1.51v.12h3.25v-.12A1.63,1.63,0,0,0,690,202.74Z" transform="translate(-681.87 -201.12)" fill="url(#a)"/></svg>