<svg xmlns="http://www.w3.org/2000/svg" viewBox="0 0 22.66 22.91"><path d="M610.92,338.47a5.16,5.16,0,0,0-5.17,5.16v12.58a5.17,5.17,0,0,0,5.17,5.17H617a1,1,0,1,0,0-1.95h-6.11a3.22,3.22,0,0,1-3.22-3.22V343.63a3.22,3.22,0,0,1,3.22-3.22h12.23a3.22,3.22,0,0,1,3.22,3.22v6.29a1,1,0,0,0,2,0v-6.29a5.17,5.17,0,0,0-5.17-5.16Zm.56,10.48a1,1,0,1,0,0,1.94h3.44a1,1,0,1,0,0-1.94Zm-1-3.61a1,1,0,0,1,1-1h6.87a1,1,0,0,1,0,1.95h-6.87A1,1,0,0,1,610.51,345.34Zm15.21,6.06a1.54,1.54,0,0,0-2.19,0l-4.3,4.38a1.57,1.57,0,0,0-.44,1.28l.24,2.28a1.27,1.27,0,0,0,1.11,1.13l2.25.25a1.49,1.49,0,0,0,1.26-.45L628,355.9a1.59,1.59,0,0,0,0-2.22Zm-5,5.63,3.9-4,1.69,1.73-3.9,4-1.53-.17Z" transform="translate(-605.75 -338.47)" fill="#430044" fill-rule="evenodd"/></svg>