<svg xmlns="http://www.w3.org/2000/svg" xmlns:xlink="http://www.w3.org/1999/xlink" viewBox="0 0 27.57 20.29"><defs><linearGradient id="a" x1="620.8" y1="302.62" x2="635.14" y2="275.37" gradientTransform="matrix(1, 0, 0, -1, 0, 702)" gradientUnits="userSpaceOnUse"><stop offset="0" stop-color="#8a008d"/><stop offset="0.21" stop-color="#430044"/><stop offset="1"/></linearGradient><linearGradient id="b" x1="611.06" y1="299.65" x2="626.65" y2="294.06" xlink:href="#a"/><linearGradient id="c" x1="632.53" y1="301.83" x2="648.12" y2="296.25" xlink:href="#a"/><linearGradient id="d" x1="619.84" y1="317.06" x2="647.68" y2="282.62" xlink:href="#a"/></defs><path d="M638.05,411.21a2.42,2.42,0,0,0,1.61-.57l-7.81-7.32-.54.36c-.58.41-1.06.72-1.42.95a10.19,10.19,0,0,1-1.46.69,4.57,4.57,0,0,1-1.69.35h0a4.57,4.57,0,0,1-1.69-.35,10.19,10.19,0,0,1-1.46-.69c-.36-.23-.83-.54-1.42-.95l-.54-.36-7.81,7.32a2.44,2.44,0,0,0,1.61.57Z" transform="translate(-612.94 -390.92)" fill="url(#a)"/><path d="M614.49,398.71a7.93,7.93,0,0,1-1.55-1.25v11.13l6.89-6.45Q617.76,400.79,614.49,398.71Z" transform="translate(-612.94 -390.92)" fill="url(#b)"/><path d="M639,398.71c-2.09,1.33-3.87,2.48-5.34,3.43l6.88,6.45V397.46A8,8,0,0,1,639,398.71Z" transform="translate(-612.94 -390.92)" fill="url(#c)"/><path d="M638.05,390.92H615.4a2.26,2.26,0,0,0-1.82.75,2.76,2.76,0,0,0-.64,1.87,3.25,3.25,0,0,0,.85,2,7.31,7.31,0,0,0,1.8,1.66l3.15,2.05,2.48,1.62,1.55,1,.23.16.43.28c.33.23.61.41.83.55s.48.3.8.47a5.06,5.06,0,0,0,.88.39,2.49,2.49,0,0,0,.77.13h0a2.49,2.49,0,0,0,.77-.13,5.5,5.5,0,0,0,.89-.39c.31-.17.57-.33.8-.47l.83-.55.42-.28.23-.16,1.56-1,5.64-3.67a7.22,7.22,0,0,0,1.88-1.77,3.66,3.66,0,0,0,.75-2.18,2.15,2.15,0,0,0-.73-1.63A2.46,2.46,0,0,0,638.05,390.92Z" transform="translate(-612.94 -390.92)" fill="url(#d)"/></svg>