<svg xmlns="http://www.w3.org/2000/svg" xmlns:xlink="http://www.w3.org/1999/xlink" viewBox="0 0 257.67 30.44"><defs><linearGradient id="a" x1="582.15" y1="331.96" x2="607.77" y2="362.58" gradientUnits="userSpaceOnUse"><stop offset="0" stop-color="#8a008d"/><stop offset="0.21" stop-color="#430044"/><stop offset="1"/></linearGradient><linearGradient id="b" x1="582.71" y1="347.27" x2="607.21" y2="347.27" xlink:href="#a"/><linearGradient id="c" x1="315.29" y1="407.84" x2="332.93" y2="405.43" gradientTransform="matrix(1, 0, 0, -1, 196.31, 754.34)" xlink:href="#a"/><linearGradient id="d" x1="331.14" y1="416.77" x2="386.84" y2="386.1" gradientTransform="matrix(1, 0, 0, -1, 196.31, 754.34)" xlink:href="#a"/><linearGradient id="e" x1="467.9" y1="416.15" x2="528.65" y2="376.53" gradientTransform="matrix(1, 0, 0, -1, 196.31, 754.34)" xlink:href="#a"/><linearGradient id="f" x1="508.59" y1="416.35" x2="564.28" y2="385.68" gradientTransform="matrix(1, 0, 0, -1, 196.31, 754.34)" xlink:href="#a"/><linearGradient id="g" x1="431.67" y1="418.22" x2="490.69" y2="381.64" gradientTransform="matrix(1, 0, 0, -1, 196.31, 754.34)" xlink:href="#a"/><linearGradient id="h" x1="285.84" y1="416.71" x2="335.12" y2="394.56" gradientTransform="matrix(1, 0, 0, -1, 196.31, 754.34)" xlink:href="#a"/><linearGradient id="i" x1="280.67" y1="407.84" x2="298.32" y2="405.43" gradientTransform="matrix(1, 0, 0, -1, 196.31, 754.34)" xlink:href="#a"/></defs><path d="M595,362.34c-16.39,0-29.41-13.88-30-14.48l-.54-.59.54-.59c.55-.59,13.57-14.49,30-14.49s29.4,13.89,29.95,14.49l.55.59-.55.59C624.36,348.46,611.34,362.34,595,362.34Zm-28.09-15.07c2.7,2.66,14.36,13.32,28.09,13.32s25.39-10.66,28.08-13.32c-2.69-2.66-14.36-13.33-28.08-13.33S569.56,344.61,566.87,347.27Z" transform="translate(-479.04 -332.19)" fill="url(#a)"/><path d="M595,358.76c-6.77,0-12.25-5.14-12.25-11.49s5.48-11.5,12.25-11.5,12.25,5.15,12.25,11.5S601.73,358.76,595,358.76Z" transform="translate(-479.04 -332.19)" fill="url(#b)"/><ellipse cx="109.49" cy="9.03" rx="3.4" ry="3.13" fill="#fff"/><path d="M520.7,332.32h-7v29.89h7Z" transform="translate(-479.04 -332.19)" fill="url(#c)"/><path d="M530.85,332.32h6.49l15,18.4v-18.4h6.95v29.89h-6l-15.48-19v19h-6.95Z" transform="translate(-479.04 -332.19)" fill="url(#d)"/><path d="M689.62,350.12l-4.25-9.69-4.25,9.69Zm-7.4-17.59h6.48l13.71,30.1h-7.36l-2.92-6.7H678.61l-2.92,6.7h-7.17Z" transform="translate(-479.04 -332.19)" fill="url(#e)"/><path d="M708.3,332.75h6.49l15,18.39V332.75h6.94v29.88h-6l-15.49-19v19H708.3Z" transform="translate(-479.04 -332.19)" fill="url(#f)"/><path d="M630.65,332.75h7.58l8.41,12.63,8.4-12.63h7.58v29.88h-7V343.12L646.55,356l-9-12.76v19.38h-6.9Z" transform="translate(-479.04 -332.19)" fill="url(#g)"/><path d="M508.14,332.32h-9.09L485,347.27l14.1,14.94h9.09l-15-14.94Z" transform="translate(-479.04 -332.19)" fill="url(#h)"/><path d="M486.08,332.32h-7v29.89h7Z" transform="translate(-479.04 -332.19)" fill="url(#i)"/></svg>