<svg xmlns="http://www.w3.org/2000/svg" xmlns:xlink="http://www.w3.org/1999/xlink" viewBox="0 0 17.4 24.42"><defs><linearGradient id="a" x1="608.99" y1="349.92" x2="626.39" y2="349.92" gradientUnits="userSpaceOnUse"><stop offset="0" stop-color="#8a008d"/><stop offset="0.21" stop-color="#430044"/><stop offset="1"/></linearGradient></defs><path d="M617.69,337.71a8.7,8.7,0,0,0-7,13.91l5.58,9.66a1,1,0,0,0,.1.18v0h0a1.53,1.53,0,0,0,1.27.65,1.55,1.55,0,0,0,1.19-.55h0l.06-.1a1.75,1.75,0,0,0,.2-.35l5.47-9.48a8.69,8.69,0,0,0-6.93-14Zm-.09,13.11a4.29,4.29,0,1,1,4.29-4.29A4.29,4.29,0,0,1,617.6,350.82Z" transform="translate(-608.99 -337.71)" fill="url(#a)"/></svg>