<svg xmlns="http://www.w3.org/2000/svg" xmlns:xlink="http://www.w3.org/1999/xlink" viewBox="0 0 22.64 22.64"><defs><linearGradient id="a" x1="609.11" y1="347.79" x2="629.85" y2="359.79" gradientUnits="userSpaceOnUse"><stop offset="0" stop-color="#8a008d"/><stop offset="0.21" stop-color="#430044"/><stop offset="1"/></linearGradient></defs><path d="M617.69,338.6a5.67,5.67,0,1,1-4,1.66A5.66,5.66,0,0,1,617.69,338.6Zm0,2.83a2.83,2.83,0,1,0,2,.83A2.83,2.83,0,0,0,617.69,341.43Zm0,9.91c3.78,0,11.32,1.88,11.32,5.66v4.24H606.37V357C606.37,353.22,613.91,351.34,617.69,351.34Zm0,2.69c-4.21,0-8.63,2.06-8.63,3v1.55h17.26V357C626.32,356.09,621.89,354,617.69,354Z" transform="translate(-606.37 -338.6)" fill="url(#a)"/></svg>