<svg xmlns="http://www.w3.org/2000/svg" xmlns:xlink="http://www.w3.org/1999/xlink" viewBox="0 0 17.01 20.29"><defs><linearGradient id="a" x1="686.53" y1="214.26" x2="695.45" y2="214.26" gradientUnits="userSpaceOnUse"><stop offset="0" stop-color="#8a008d"/><stop offset="0.21" stop-color="#430044"/><stop offset="1"/></linearGradient><linearGradient id="b" x1="681.88" y1="211.27" x2="698.9" y2="211.27" xlink:href="#a"/><linearGradient id="c" x1="684.14" y1="206.39" x2="684.65" y2="206.39" xlink:href="#a"/><linearGradient id="d" x1="685.99" y1="206.76" x2="686.64" y2="206.76" xlink:href="#a"/></defs><path d="M694,214.84a9.67,9.67,0,0,0-1.94.18,8.94,8.94,0,0,1-1.16-1.55c1-2.74.35-3.52-.47-3.52-.63,0-1,.67-.88,1.42a6.87,6.87,0,0,0,.74,1.91,23.28,23.28,0,0,1-1.09,2.47,10,10,0,0,0-1.23.46c-1.52.71-1.65,1.65-1.33,2,.6.77,1.89.11,3.17-2.19.88-.26,2-.59,2.15-.59h0a4.83,4.83,0,0,0,2,1.3,1.12,1.12,0,0,0,1.39-.94C695.41,215.44,695.17,214.91,694,214.84Zm-5.71,2.48c-.37.45-1,.87-1.19.73s-.25-.55.23-1a3.91,3.91,0,0,1,1.4-.74c.14-.06.18,0,.18.07A3.55,3.55,0,0,1,688.32,217.32Zm1.63-5.95c0-.45,0-.87.43-.92s.55.37.4,1.06a6,6,0,0,1-.28,1.21c-.07.05-.14-.13-.14-.13A3.8,3.8,0,0,1,690,211.37Zm.14,4.16a17.26,17.26,0,0,0,.69-1.61c.11.2.94,1.19.94,1.19S690.45,215.39,690.09,215.53Zm3.87.57a4.64,4.64,0,0,1-1.44-.71,4.57,4.57,0,0,1,1.42-.18c.55,0,.74.27.74.5S694.49,216.17,694,216.1Z" transform="translate(-681.88 -201.12)" fill="url(#a)"/><path d="M698.53,205.39l-3.9-3.9-.37-.37h-8.47a3.4,3.4,0,0,0-3.4,3.4v.27h-.51v4.07h.51V218a3.4,3.4,0,0,0,3.4,3.4h9.7a3.41,3.41,0,0,0,3.41-3.4V205.76Zm-3,14.76h-9.7a2.14,2.14,0,0,1-2.14-2.14v-9.15h6.23v-4.07h-6.23v-.27a2.14,2.14,0,0,1,2.14-2.14h7.65v2.41a1.79,1.79,0,0,0,1.78,1.79h2.42V218A2.14,2.14,0,0,1,695.49,220.15ZM683.74,207.7v-1.88a.05.05,0,0,1,.06-.06h.59a.66.66,0,0,1,.28.05.57.57,0,0,1,.21.13.58.58,0,0,1,.13.2.65.65,0,0,1-.13.7.54.54,0,0,1-.22.13.76.76,0,0,1-.27.05h-.25v.68a.06.06,0,0,1-.06.06h-.28A.05.05,0,0,1,683.74,207.7Zm1.84,0v-1.88a.06.06,0,0,1,.06-.06h.66a.81.81,0,0,1,.33.06.7.7,0,0,1,.26.2,1.09,1.09,0,0,1,.08.15,1.21,1.21,0,0,1,0,.18,1.11,1.11,0,0,1,0,.19V207a1.11,1.11,0,0,1,0,.19,1.21,1.21,0,0,1,0,.18.71.71,0,0,1-.08.15.7.7,0,0,1-.26.2.81.81,0,0,1-.33.06h-.66A.06.06,0,0,1,685.58,207.7Zm3.16-1.11a.06.06,0,0,1,.06.06v.26a.06.06,0,0,1-.06.06H688v.73a.05.05,0,0,1-.06.06h-.28a.05.05,0,0,1-.06-.06v-1.88a.05.05,0,0,1,.06-.06h1.09a.05.05,0,0,1,.06.06v.25s0,.07-.06.07H688v.45Z" transform="translate(-681.88 -201.12)" fill="url(#b)"/><path d="M684.58,206.58a.25.25,0,0,0,.07-.19.24.24,0,0,0-.07-.19.32.32,0,0,0-.2-.06h-.24v.5h.24A.32.32,0,0,0,684.58,206.58Z" transform="translate(-681.88 -201.12)" fill="url(#c)"/><path d="M686.43,207.36a.25.25,0,0,0,.12-.08.3.3,0,0,0,.07-.18,2.9,2.9,0,0,0,0-.68.3.3,0,0,0-.07-.18.25.25,0,0,0-.12-.08.38.38,0,0,0-.16,0H686v1.26h.28A.38.38,0,0,0,686.43,207.36Z" transform="translate(-681.88 -201.12)" fill="url(#d)"/></svg>