<svg xmlns="http://www.w3.org/2000/svg" xmlns:xlink="http://www.w3.org/1999/xlink" viewBox="0 0 20.14 20.17"><defs><linearGradient id="a" x1="614.97" y1="308.5" x2="653.53" y2="286.19" gradientTransform="matrix(1, 0, 0, -1, 0, 702)" gradientUnits="userSpaceOnUse"><stop offset="0" stop-color="#8a008d"/><stop offset="0.21" stop-color="#430044"/><stop offset="1"/></linearGradient></defs><path d="M631.46,403.81l-1.55,1.54a1.1,1.1,0,0,1-.79.33,1.13,1.13,0,0,1-.79-.33,1.15,1.15,0,0,1-.32-.79,1.16,1.16,0,0,1,.32-.79l2-2a1.18,1.18,0,0,1,.47-.28,1.09,1.09,0,0,1,.54,0l4.91,1a1.1,1.1,0,0,1,.65.39,1.14,1.14,0,0,1,.25.71v5.9a1.1,1.1,0,0,1-.24.7,1.13,1.13,0,0,1-.62.39c-3.79.9-9.2-.58-13.82-5.22s-6.11-10-5.21-13.84a1.12,1.12,0,0,1,.4-.62,1.07,1.07,0,0,1,.69-.24h5.9a1.11,1.11,0,0,1,1.09.9l1,4.92a1.09,1.09,0,0,1,0,.54,1.18,1.18,0,0,1-.28.47l-1.38,1.38a11.44,11.44,0,0,0,2.45,3,1.11,1.11,0,0,1,.39.77,1.09,1.09,0,0,1-.28.81,1.13,1.13,0,0,1-.34.27,1.19,1.19,0,0,1-.42.11,1.08,1.08,0,0,1-.81-.27c-.24-.21-.48-.43-.71-.66a14.14,14.14,0,0,1-2.66-3.74,1.11,1.11,0,0,1-.1-.67,1.18,1.18,0,0,1,.31-.62l1.55-1.54-.69-3.43h-4c-.33,3,1,7.17,4.76,10.88s7.86,5.1,10.87,4.77v-4Z" transform="translate(-616.98 -390.65)" fill="url(#a)"/></svg>