<svg xmlns="http://www.w3.org/2000/svg" viewBox="0 0 1160 1160"><rect width="1160" height="1160" fill="#fff"/><rect x="400" y="80" width="40" height="40"/><rect x="440" y="80" width="40" height="40"/><rect x="600" y="80" width="40" height="40"/><rect x="720" y="80" width="40" height="40"/><rect x="400" y="120" width="40" height="40"/><rect x="480" y="120" width="40" height="40"/><rect x="520" y="120" width="40" height="40"/><rect x="640" y="120" width="40" height="40"/><rect x="400" y="160" width="40" height="40"/><rect x="480" y="160" width="40" height="40"/><rect x="600" y="160" width="40" height="40"/><rect x="640" y="160" width="40" height="40"/><rect x="720" y="160" width="40" height="40"/><rect x="440" y="200" width="40" height="40"/><rect x="520" y="200" width="40" height="40"/><rect x="560" y="200" width="40" height="40"/><rect x="600" y="200" width="40" height="40"/><rect x="640" y="200" width="40" height="40"/><rect x="680" y="200" width="40" height="40"/><rect x="400" y="240" width="40" height="40"/><rect x="440" y="240" width="40" height="40"/><rect x="520" y="240" width="40" height="40"/><rect x="560" y="240" width="40" height="40"/><rect x="440" y="280" width="40" height="40"/><rect x="480" y="280" width="40" height="40"/><rect x="560" y="280" width="40" height="40"/><rect x="720" y="280" width="40" height="40"/><rect x="400" y="320" width="40" height="40"/><rect x="480" y="320" width="40" height="40"/><rect x="560" y="320" width="40" height="40"/><rect x="640" y="320" width="40" height="40"/><rect x="720" y="320" width="40" height="40"/><rect x="440" y="360" width="40" height="40"/><rect x="480" y="360" width="40" height="40"/><rect x="560" y="360" width="40" height="40"/><rect x="600" y="360" width="40" height="40"/><rect x="640" y="360" width="40" height="40"/><rect x="720" y="360" width="40" height="40"/><rect x="80" y="400" width="40" height="40"/><rect x="200" y="400" width="40" height="40"/><rect x="240" y="400" width="40" height="40"/><rect x="280" y="400" width="40" height="40"/><rect x="320" y="400" width="40" height="40"/><rect x="360" y="400" width="40" height="40"/><rect x="400" y="400" width="40" height="40"/><rect x="440" y="400" width="40" height="40"/><rect x="680" y="400" width="40" height="40"/><rect x="760" y="400" width="40" height="40"/><rect x="880" y="400" width="40" height="40"/><rect x="960" y="400" width="40" height="40"/><rect x="1000" y="400" width="40" height="40"/><rect x="1040" y="400" width="40" height="40"/><rect x="80" y="440" width="40" height="40"/><rect x="120" y="440" width="40" height="40"/><rect x="160" y="440" width="40" height="40"/><rect x="280" y="440" width="40" height="40"/><rect x="400" y="440" width="40" height="40"/><rect x="440" y="440" width="40" height="40"/><rect x="680" y="440" width="40" height="40"/><rect x="840" y="440" width="40" height="40"/><rect x="880" y="440" width="40" height="40"/><rect x="920" y="440" width="40" height="40"/><rect x="960" y="440" width="40" height="40"/><rect x="1000" y="440" width="40" height="40"/><rect x="80" y="480" width="40" height="40"/><rect x="120" y="480" width="40" height="40"/><rect x="160" y="480" width="40" height="40"/><rect x="200" y="480" width="40" height="40"/><rect x="240" y="480" width="40" height="40"/><rect x="280" y="480" width="40" height="40"/><rect x="320" y="480" width="40" height="40"/><rect x="360" y="480" width="40" height="40"/><rect x="480" y="480" width="40" height="40"/><rect x="560" y="480" width="40" height="40"/><rect x="640" y="480" width="40" height="40"/><rect x="680" y="480" width="40" height="40"/><rect x="720" y="480" width="40" height="40"/><rect x="760" y="480" width="40" height="40"/><rect x="800" y="480" width="40" height="40"/><rect x="840" y="480" width="40" height="40"/><rect x="920" y="480" width="40" height="40"/><rect x="1040" y="480" width="40" height="40"/><rect x="80" y="520" width="40" height="40"/><rect x="160" y="520" width="40" height="40"/><rect x="400" y="520" width="40" height="40"/><rect x="520" y="520" width="40" height="40"/><rect x="560" y="520" width="40" height="40"/><rect x="680" y="520" width="40" height="40"/><rect x="720" y="520" width="40" height="40"/><rect x="840" y="520" width="40" height="40"/><rect x="880" y="520" width="40" height="40"/><rect x="920" y="520" width="40" height="40"/><rect x="960" y="520" width="40" height="40"/><rect x="1000" y="520" width="40" height="40"/><rect x="1040" y="520" width="40" height="40"/><rect x="80" y="560" width="40" height="40"/><rect x="160" y="560" width="40" height="40"/><rect x="200" y="560" width="40" height="40"/><rect x="240" y="560" width="40" height="40"/><rect x="320" y="560" width="40" height="40"/><rect x="360" y="560" width="40" height="40"/><rect x="400" y="560" width="40" height="40"/><rect x="480" y="560" width="40" height="40"/><rect x="520" y="560" width="40" height="40"/><rect x="640" y="560" width="40" height="40"/><rect x="680" y="560" width="40" height="40"/><rect x="800" y="560" width="40" height="40"/><rect x="840" y="560" width="40" height="40"/><rect x="1040" y="560" width="40" height="40"/><rect x="80" y="600" width="40" height="40"/><rect x="160" y="600" width="40" height="40"/><rect x="200" y="600" width="40" height="40"/><rect x="440" y="600" width="40" height="40"/><rect x="560" y="600" width="40" height="40"/><rect x="600" y="600" width="40" height="40"/><rect x="680" y="600" width="40" height="40"/><rect x="720" y="600" width="40" height="40"/><rect x="880" y="600" width="40" height="40"/><rect x="1000" y="600" width="40" height="40"/><rect x="80" y="640" width="40" height="40"/><rect x="120" y="640" width="40" height="40"/><rect x="240" y="640" width="40" height="40"/><rect x="280" y="640" width="40" height="40"/><rect x="320" y="640" width="40" height="40"/><rect x="600" y="640" width="40" height="40"/><rect x="680" y="640" width="40" height="40"/><rect x="800" y="640" width="40" height="40"/><rect x="840" y="640" width="40" height="40"/><rect x="920" y="640" width="40" height="40"/><rect x="960" y="640" width="40" height="40"/><rect x="1000" y="640" width="40" height="40"/><rect x="1040" y="640" width="40" height="40"/><rect x="80" y="680" width="40" height="40"/><rect x="160" y="680" width="40" height="40"/><rect x="240" y="680" width="40" height="40"/><rect x="440" y="680" width="40" height="40"/><rect x="560" y="680" width="40" height="40"/><rect x="640" y="680" width="40" height="40"/><rect x="680" y="680" width="40" height="40"/><rect x="760" y="680" width="40" height="40"/><rect x="800" y="680" width="40" height="40"/><rect x="840" y="680" width="40" height="40"/><rect x="960" y="680" width="40" height="40"/><rect x="1040" y="680" width="40" height="40"/><rect x="80" y="720" width="40" height="40"/><rect x="200" y="720" width="40" height="40"/><rect x="320" y="720" width="40" height="40"/><rect x="360" y="720" width="40" height="40"/><rect x="440" y="720" width="40" height="40"/><rect x="480" y="720" width="40" height="40"/><rect x="520" y="720" width="40" height="40"/><rect x="560" y="720" width="40" height="40"/><rect x="600" y="720" width="40" height="40"/><rect x="640" y="720" width="40" height="40"/><rect x="720" y="720" width="40" height="40"/><rect x="760" y="720" width="40" height="40"/><rect x="800" y="720" width="40" height="40"/><rect x="840" y="720" width="40" height="40"/><rect x="880" y="720" width="40" height="40"/><rect x="960" y="720" width="40" height="40"/><rect x="1000" y="720" width="40" height="40"/><rect x="400" y="760" width="40" height="40"/><rect x="520" y="760" width="40" height="40"/><rect x="600" y="760" width="40" height="40"/><rect x="720" y="760" width="40" height="40"/><rect x="880" y="760" width="40" height="40"/><rect x="1000" y="760" width="40" height="40"/><rect x="400" y="800" width="40" height="40"/><rect x="440" y="800" width="40" height="40"/><rect x="480" y="800" width="40" height="40"/><rect x="560" y="800" width="40" height="40"/><rect x="720" y="800" width="40" height="40"/><rect x="800" y="800" width="40" height="40"/><rect x="880" y="800" width="40" height="40"/><rect x="920" y="800" width="40" height="40"/><rect x="1040" y="800" width="40" height="40"/><rect x="400" y="840" width="40" height="40"/><rect x="440" y="840" width="40" height="40"/><rect x="520" y="840" width="40" height="40"/><rect x="600" y="840" width="40" height="40"/><rect x="680" y="840" width="40" height="40"/><rect x="720" y="840" width="40" height="40"/><rect x="880" y="840" width="40" height="40"/><rect x="400" y="880" width="40" height="40"/><rect x="520" y="880" width="40" height="40"/><rect x="600" y="880" width="40" height="40"/><rect x="680" y="880" width="40" height="40"/><rect x="720" y="880" width="40" height="40"/><rect x="760" y="880" width="40" height="40"/><rect x="800" y="880" width="40" height="40"/><rect x="840" y="880" width="40" height="40"/><rect x="880" y="880" width="40" height="40"/><rect x="920" y="880" width="40" height="40"/><rect x="1000" y="880" width="40" height="40"/><rect x="1040" y="880" width="40" height="40"/><rect x="400" y="920" width="40" height="40"/><rect x="440" y="920" width="40" height="40"/><rect x="480" y="920" width="40" height="40"/><rect x="560" y="920" width="40" height="40"/><rect x="600" y="920" width="40" height="40"/><rect x="640" y="920" width="40" height="40"/><rect x="720" y="920" width="40" height="40"/><rect x="760" y="920" width="40" height="40"/><rect x="800" y="920" width="40" height="40"/><rect x="920" y="920" width="40" height="40"/><rect x="1000" y="920" width="40" height="40"/><rect x="1040" y="920" width="40" height="40"/><rect x="440" y="960" width="40" height="40"/><rect x="520" y="960" width="40" height="40"/><rect x="600" y="960" width="40" height="40"/><rect x="680" y="960" width="40" height="40"/><rect x="720" y="960" width="40" height="40"/><rect x="760" y="960" width="40" height="40"/><rect x="840" y="960" width="40" height="40"/><rect x="880" y="960" width="40" height="40"/><rect x="960" y="960" width="40" height="40"/><rect x="1000" y="960" width="40" height="40"/><rect x="1040" y="960" width="40" height="40"/><rect x="480" y="1000" width="40" height="40"/><rect x="520" y="1000" width="40" height="40"/><rect x="560" y="1000" width="40" height="40"/><rect x="600" y="1000" width="40" height="40"/><rect x="840" y="1000" width="40" height="40"/><rect x="880" y="1000" width="40" height="40"/><rect x="960" y="1000" width="40" height="40"/><rect x="1000" y="1000" width="40" height="40"/><rect x="1040" y="1000" width="40" height="40"/><rect x="400" y="1040" width="40" height="40"/><rect x="480" y="1040" width="40" height="40"/><rect x="520" y="1040" width="40" height="40"/><rect x="560" y="1040" width="40" height="40"/><rect x="600" y="1040" width="40" height="40"/><rect x="720" y="1040" width="40" height="40"/><rect x="760" y="1040" width="40" height="40"/><rect x="800" y="1040" width="40" height="40"/><rect x="920" y="1040" width="40" height="40"/><rect x="1040" y="1040" width="40" height="40"/><rect x="122" y="122" width="196" height="196" fill="none"/><path d="M-1198.56,880h-238v280h280V880Zm0,238h-196V922h196Z" transform="translate(1516.56 -800)"/><rect x="842" y="122" width="196" height="196" fill="none"/><path d="M-478.56,880h-238v280h280V880Zm0,238h-196V922h196Z" transform="translate(1516.56 -800)"/><rect x="122" y="842" width="196" height="196" fill="none"/><path d="M-1198.56,1600h-238v280h280V1600Zm0,238h-196V1642h196Z" transform="translate(1516.56 -800)"/><rect x="160" y="160" width="120" height="120"/><rect x="880" y="160" width="120" height="120"/><rect x="160" y="880" width="120" height="120"/></svg>