<svg xmlns="http://www.w3.org/2000/svg" xmlns:xlink="http://www.w3.org/1999/xlink" viewBox="0 0 20.76 43.14"><defs><linearGradient id="a" x1="509.58" y1="549.77" x2="458.87" y2="535.26" gradientTransform="matrix(1, 0, 0, -1, 196.31, 754.34)" gradientUnits="userSpaceOnUse"><stop offset="0" stop-color="#8a008d"/><stop offset="0.2" stop-color="#430044"/><stop offset="1"/></linearGradient></defs><path d="M682.92,189.85a.48.48,0,0,0-.6-.11l-2.08,1.17a.48.48,0,0,0-.14.73l14.48,18.08a1.46,1.46,0,0,1,0,1.79l-14.43,19.16a.67.67,0,0,0,.19,1l1.8,1.08a.66.66,0,0,0,.86-.15l17.38-21a1.46,1.46,0,0,0,0-1.9Z" transform="translate(-679.99 -189.68)" fill="url(#a)"/></svg>