<svg xmlns="http://www.w3.org/2000/svg" xmlns:xlink="http://www.w3.org/1999/xlink" viewBox="0 0 1007 269.91"><defs><linearGradient id="a" x1="440.71" y1="259.89" x2="440.71" y2="457.15" gradientTransform="matrix(1, 0, 0, -1, 196.31, 754.34)" gradientUnits="userSpaceOnUse"><stop offset="0" stop-color="#fff" stop-opacity="0.37"/><stop offset="0.22" stop-color="#fff" stop-opacity="0.93"/><stop offset="0.41" stop-color="#dbdbdb" stop-opacity="0.56"/><stop offset="0.62" stop-color="#4f215f" stop-opacity="0.32"/><stop offset="0.88" stop-color="#45005e" stop-opacity="0.83"/></linearGradient><linearGradient id="b" x1="428.88" y1="562.49" x2="459.96" y2="281.43" gradientTransform="matrix(1, 0, 0, -1, 196.31, 754.34)" gradientUnits="userSpaceOnUse"><stop offset="0" stop-color="#fff"/><stop offset="0.06" stop-color="#8a008d"/><stop offset="0.13" stop-color="#430044"/><stop offset="0.38"/><stop offset="0.78" stop-color="#bd00ff" stop-opacity="0.42"/><stop offset="1" stop-color="#bd00ff" stop-opacity="0"/></linearGradient></defs><path d="M176.39,306.2a1.82,1.82,0,0,1,1.59-2c24-2.69,313.23-34.83,458.27-34.83s425.05,32.1,448.56,34.82a1.82,1.82,0,0,1,1.58,2v11.72l44.77,150.8c7.16,24.09-16.93,46.71-40.81,38.89-87.91-28.77-264.08-77.19-454.1-77.19-192.39,0-367.39,49.63-452.32,78.26-23,7.75-46.84-12.83-41.61-36.54l34.07-154.22Z" transform="translate(-129.89 -240.41)" fill="#d8d8d8" fill-opacity="0.1"/><path d="M176.39,306.2a1.82,1.82,0,0,1,1.59-2c24-2.69,313.23-34.83,458.27-34.83s425.05,32.1,448.56,34.82a1.82,1.82,0,0,1,1.58,2v11.72l44.77,150.8c7.16,24.09-16.93,46.71-40.81,38.89-87.91-28.77-264.08-77.19-454.1-77.19-192.39,0-367.39,49.63-452.32,78.26-23,7.75-46.84-12.83-41.61-36.54l34.07-154.22Z" transform="translate(-129.89 -240.41)" fill-opacity="0.4" fill="url(#a)"/><path d="M129.89,266.41s218.5-17.78,504-17.78c304,0,503,17,503,17l-47,47.5s-269.88-15.25-456-15.22c-228,0-461.5,15.22-461.5,15.22Z" transform="translate(-129.89 -240.41)"/><path d="M129.89,266.41s218.5-17.78,504-17.78c304,0,503,17,503,17l-47,47.5s-269.88-15.25-456-15.22c-228,0-461.5,15.22-461.5,15.22Z" transform="translate(-129.89 -240.41)" fill="url(#b)"/><path d="M131.89,256s215.5-15.6,501.5-15.6,501.5,15.6,501.5,15.6l2,9.63s-259-16.83-503.5-16.83-503.5,17.6-503.5,17.6Z" transform="translate(-129.89 -240.41)" fill="#5b5b5b"/></svg>