<svg xmlns="http://www.w3.org/2000/svg" xmlns:xlink="http://www.w3.org/1999/xlink" viewBox="0 0 14.86 30.98"><defs><linearGradient id="a" x1="530.11" y1="556.97" x2="539.7" y2="580.26" gradientTransform="matrix(1, 0, 0, -1, 196.31, 754.34)" gradientUnits="userSpaceOnUse"><stop offset="0" stop-color="#8a008d"/><stop offset="0.21" stop-color="#430044"/><stop offset="1"/></linearGradient><linearGradient id="b" x1="530.11" y1="546.3" x2="539.7" y2="569.6" xlink:href="#a"/><linearGradient id="c" x1="530.11" y1="535.63" x2="539.7" y2="558.93" xlink:href="#a"/></defs><path d="M723.49,186.88a.39.39,0,0,1,0-.38l.25-.65a.38.38,0,0,1,.65-.11l5.44,6.27a1.15,1.15,0,0,0,1.72,0l5.69-6.17a.53.53,0,0,1,.88.16l.16.39a.53.53,0,0,1-.08.55l-6.62,7.88a1.16,1.16,0,0,1-1.79,0Z" transform="translate(-723.41 -185.6)" fill="url(#a)"/><path d="M723.49,197.55a.4.4,0,0,1,0-.38l.25-.65a.39.39,0,0,1,.65-.12l5.44,6.27a1.15,1.15,0,0,0,1.72,0l5.69-6.17a.53.53,0,0,1,.88.15l.16.4a.51.51,0,0,1-.08.54l-6.62,7.88a1.16,1.16,0,0,1-1.79,0Z" transform="translate(-723.41 -185.6)" fill="url(#b)"/><path d="M723.49,208.22a.4.4,0,0,1,0-.38l.25-.66a.38.38,0,0,1,.65-.11l5.44,6.27a1.16,1.16,0,0,0,1.72,0l5.69-6.18a.53.53,0,0,1,.88.16l.16.4a.51.51,0,0,1-.08.54l-6.62,7.88a1.15,1.15,0,0,1-1.79,0Z" transform="translate(-723.41 -185.6)" fill="url(#c)"/></svg>