<svg xmlns="http://www.w3.org/2000/svg" xmlns:xlink="http://www.w3.org/1999/xlink" viewBox="0 0 393 141.83"><defs><linearGradient id="a" x1="435.12" y1="416.06" x2="437.72" y2="410.18" gradientTransform="matrix(1, 0, 0, -1, 196.31, 754.34)" gradientUnits="userSpaceOnUse"><stop offset="0"/><stop offset="0.41" stop-color="#c7c7c7"/><stop offset="0.56" stop-color="#a1a1a1" stop-opacity="0.61"/><stop offset="0.98" stop-color="#fff" stop-opacity="0"/></linearGradient><radialGradient id="b" cx="704.05" cy="771.53" r="1" gradientTransform="matrix(-0.03, 0.34, 1.33, 0.11, -375.66, 15.45)" gradientUnits="userSpaceOnUse"><stop offset="0" stop-color="#c4c4c4"/><stop offset="0.47" stop-color="#ddd" stop-opacity="0.57"/><stop offset="0.78" stop-color="#fff" stop-opacity="0"/></radialGradient><linearGradient id="c" x1="451.07" y1="444.25" x2="450.1" y2="384.43" gradientTransform="matrix(1, 0, 0, -1, 196.31, 754.34)" gradientUnits="userSpaceOnUse"><stop offset="0" stop-color="#fff"/><stop offset="0" stop-color="#eee" stop-opacity="0.8"/><stop offset="0.64" stop-color="#888" stop-opacity="0.29"/><stop offset="0.69" stop-color="#353535" stop-opacity="0.58"/><stop offset="0.73" stop-color="#bdbdbd" stop-opacity="0.55"/><stop offset="0.99" stop-color="#140015" stop-opacity="0.09"/><stop offset="1" stop-color="#3b0040" stop-opacity="0"/></linearGradient><linearGradient id="d" x1="461.94" y1="419.16" x2="467.76" y2="403.49" gradientTransform="matrix(1, 0, 0, -1, 196.31, 754.34)" gradientUnits="userSpaceOnUse"><stop offset="0.28" stop-color="#f9f3fb"/><stop offset="0.42" stop-color="#e2e2e2" stop-opacity="0.57"/><stop offset="0.59" stop-color="#fff" stop-opacity="0"/><stop offset="1" stop-opacity="0"/></linearGradient><radialGradient id="e" cx="541.36" cy="749.78" r="1" gradientTransform="matrix(-0.05, 0.43, 2.21, 0.27, -974.61, -90.35)" gradientUnits="userSpaceOnUse"><stop offset="0.17" stop-color="#c4c4c4"/><stop offset="0.56" stop-color="#ddd" stop-opacity="0.57"/><stop offset="0.78" stop-color="#fff" stop-opacity="0"/></radialGradient><linearGradient id="f" x1="375.44" y1="416.06" x2="378.04" y2="410.18" xlink:href="#a"/><radialGradient id="g" cx="704.05" cy="771.53" r="1" gradientTransform="matrix(-0.03, 0.34, 1.33, 0.11, -435.34, 15.45)" xlink:href="#b"/><linearGradient id="h" x1="391.39" y1="444.25" x2="390.42" y2="384.43" xlink:href="#c"/><linearGradient id="i" x1="402.26" y1="419.16" x2="408.08" y2="403.49" xlink:href="#d"/><radialGradient id="j" cx="541.36" cy="749.78" r="1" gradientTransform="matrix(-0.05, 0.43, 2.21, 0.27, -1034.29, -90.35)" xlink:href="#e"/><linearGradient id="k" x1="397.94" y1="417.15" x2="401.71" y2="408.61" xlink:href="#a"/><radialGradient id="l" cx="485.25" cy="749.61" r="1" gradientTransform="matrix(-0.04, 0.5, 1.93, 0.16, -833.97, -18.46)" xlink:href="#b"/><linearGradient id="m" x1="421.44" y1="460.62" x2="419.54" y2="371.75" gradientTransform="matrix(1, 0, 0, -1, 196.31, 754.34)" gradientUnits="userSpaceOnUse"><stop offset="0" stop-color="#fff"/><stop offset="0" stop-color="#eee" stop-opacity="0.8"/><stop offset="0.53" stop-color="#b7b7b7" stop-opacity="0.29"/><stop offset="0.68" stop-color="#1f1f1f" stop-opacity="0.58"/><stop offset="0.73" stop-color="#bdbdbd" stop-opacity="0.55"/><stop offset="0.99" stop-color="#c8c8c8" stop-opacity="0.09"/><stop offset="1" stop-color="#fff" stop-opacity="0"/></linearGradient><linearGradient id="n" x1="436.85" y1="421.65" x2="445.3" y2="398.92" xlink:href="#d"/><radialGradient id="o" cx="373.12" cy="734.62" r="1" gradientTransform="matrix(-0.08, 0.63, 3.21, 0.39, -1700.05, -172.87)" xlink:href="#e"/><linearGradient id="p" x1="420.85" y1="459.16" x2="420.85" y2="358.5" gradientTransform="matrix(1, 0, 0, -1, 196.31, 754.34)" gradientUnits="userSpaceOnUse"><stop offset="0.49" stop-color="#fff"/><stop offset="1" stop-color="#fff" stop-opacity="0"/></linearGradient></defs><ellipse cx="196.5" cy="103.9" rx="196.5" ry="37.93" fill="#efefef"/><path d="M679.54,332.79c35.56,32.76-62.24,47.54-81.53,47.54-25.69,0-73.72-41.61-62.74-44.21,38.28-9.06,60.26-50.3,91.81-51.95C645.8,283.19,649.06,304.72,679.54,332.79Z" transform="translate(-420.66 -284.14)" fill="#fbfbfb"/><g opacity="0.7"><ellipse cx="199.31" cy="95.42" rx="142.83" ry="30.99" fill="#f3f3f3"/></g><g opacity="0.55"><path d="M625.4,347.85a2.34,2.34,0,0,1,1-3.8l12.61-4.4a3.46,3.46,0,1,1,1.72,6.67l-13.17,2.25A2.32,2.32,0,0,1,625.4,347.85Z" transform="translate(-420.66 -284.14)"/><path d="M625.4,347.85a2.34,2.34,0,0,1,1-3.8l12.61-4.4a3.46,3.46,0,1,1,1.72,6.67l-13.17,2.25A2.32,2.32,0,0,1,625.4,347.85Z" transform="translate(-420.66 -284.14)" fill="url(#a)"/><ellipse cx="628.44" cy="344.02" rx="1.75" ry="0.45" transform="translate(-476.82 -151.31) rotate(-11.55)" fill="#302f2f"/><ellipse cx="628.44" cy="344.02" rx="1.75" ry="0.45" transform="translate(-476.82 -151.31) rotate(-11.55)" fill="url(#b)"/><path d="M636.51,345.94a.55.55,0,0,1,.53-.4H639l-2.78,3.57a1.59,1.59,0,0,1-.75.54c-1.17.41-3.81,1.29-6.13,2a29.06,29.06,0,0,1-3,.73l-.51.06a1.87,1.87,0,0,1,.14-.51c.07-.12.2-.23.71-.62a1.21,1.21,0,0,1,.28-.13c.17-.07.39-.14.66-.22.53-.15,1.2-.31,1.93-.47,1.46-.31,3.12-.61,4.27-.8a2.8,2.8,0,0,0,2.22-2Zm-11,6.45h0Z" transform="translate(-420.66 -284.14)" stroke="#000" stroke-width="1.11"/><path d="M656.93,351.86l6.58-.57s4.91-2.48,4-.27-2.57,5.89-1.86,8.39a11.39,11.39,0,0,0,3.56,5.09,1.39,1.39,0,0,1-.41,2.33l-11.57,3.55Z" transform="translate(-420.66 -284.14)"/><path d="M639.22,316a5.53,5.53,0,0,1,5.64-5.21l17.56.34a5.53,5.53,0,0,1,5.43,5.46l.43,31.16a3.31,3.31,0,0,1-3.32,3.36h-3.83a2.23,2.23,0,0,0-2.22,2.22v14.95a2.21,2.21,0,0,1-2.21,2.22H627.4a2.21,2.21,0,0,1-2.22-2.22V352.92a2.22,2.22,0,0,1,1.82-2.18l7.74-1.41a3.33,3.33,0,0,0,2.72-3.08Z" transform="translate(-420.66 -284.14)" fill="gray"/><path d="M639.22,316a5.53,5.53,0,0,1,5.64-5.21l17.56.34a5.53,5.53,0,0,1,5.43,5.46l.43,31.16a3.31,3.31,0,0,1-3.32,3.36h-3.83a2.23,2.23,0,0,0-2.22,2.22v14.95a2.21,2.21,0,0,1-2.21,2.22H627.4a2.21,2.21,0,0,1-2.22-2.22V352.92a2.22,2.22,0,0,1,1.82-2.18l7.74-1.41a3.33,3.33,0,0,0,2.72-3.08Z" transform="translate(-420.66 -284.14)" fill="url(#c)"/><path d="M639.5,316a5.26,5.26,0,0,1,5.35-5l17.56.35a5.26,5.26,0,0,1,5.16,5.18l.44,31.16a3.05,3.05,0,0,1-3,3.09h-3.83a2.48,2.48,0,0,0-2.49,2.49v14.95a1.94,1.94,0,0,1-1.94,1.94H627.4a1.94,1.94,0,0,1-1.94-1.94V352.92a1.93,1.93,0,0,1,1.59-1.9l7.74-1.42a3.6,3.6,0,0,0,3-3.33Z" transform="translate(-420.66 -284.14)" fill="none" stroke="#000" stroke-width="0.55"/><path d="M667.42,347a.51.51,0,0,1,.48-.3c.56,0,1.36,0,2,.07l.27,0c-.2.21-.45.47-.74.81a24.36,24.36,0,0,0-3.27,5.49,6.42,6.42,0,0,1-.79,1.35c-.22.25-.34.26-.36.26s-.1,0-.25-.14a3.87,3.87,0,0,1-.54-.64l-.22-.32c-.13-.19-.27-.39-.41-.57a4.39,4.39,0,0,0-.77-.84,1.75,1.75,0,0,0-1.13-.43,2,2,0,0,0-1.29.55c-.56.48-1,.82-1.27,1.06,0-.13,0-.27.07-.43s.07-.44.11-.7a1.54,1.54,0,0,1,.74-.82,6.76,6.76,0,0,1,1.3-.51c.52-.16,2-.44,3.16-.64a2.79,2.79,0,0,0,2-1.51l.87-1.76-.5-.25Zm3.23-.71v0Zm-12,7.41h0Zm.45.27h0Z" transform="translate(-420.66 -284.14)" stroke="#000" stroke-width="1.11"/><path d="M652.64,348.47a2.47,2.47,0,0,1,1.22-4l13.53-3.87a3.64,3.64,0,1,1,1.41,7.11l-14,1.59A2.46,2.46,0,0,1,652.64,348.47Z" transform="translate(-420.66 -284.14)"/><path d="M652.64,348.47a2.47,2.47,0,0,1,1.22-4l13.53-3.87a3.64,3.64,0,1,1,1.41,7.11l-14,1.59A2.46,2.46,0,0,1,652.64,348.47Z" transform="translate(-420.66 -284.14)" fill="url(#d)"/><ellipse cx="656.07" cy="344.4" rx="1.75" ry="0.34" transform="translate(-470.72 -164.26) rotate(-10.06)" fill="#302f2f"/><ellipse cx="656.07" cy="344.4" rx="1.75" ry="0.34" transform="translate(-470.72 -164.26) rotate(-10.06)" fill="url(#e)"/><path d="M565.71,347.85a2.34,2.34,0,0,1,.95-3.8l12.62-4.4a3.46,3.46,0,1,1,1.72,6.67l-13.17,2.25A2.34,2.34,0,0,1,565.71,347.85Z" transform="translate(-420.66 -284.14)"/><path d="M565.71,347.85a2.34,2.34,0,0,1,.95-3.8l12.62-4.4a3.46,3.46,0,1,1,1.72,6.67l-13.17,2.25A2.34,2.34,0,0,1,565.71,347.85Z" transform="translate(-420.66 -284.14)" fill="url(#f)"/><ellipse cx="568.76" cy="344.02" rx="1.75" ry="0.45" transform="translate(-478.03 -163.26) rotate(-11.55)" fill="#302f2f"/><ellipse cx="568.76" cy="344.02" rx="1.75" ry="0.45" transform="translate(-478.03 -163.26) rotate(-11.55)" fill="url(#g)"/><path d="M576.83,345.94a.54.54,0,0,1,.53-.4h1.91l-2.78,3.57a1.57,1.57,0,0,1-.76.54c-1.16.41-3.8,1.29-6.12,2a29.06,29.06,0,0,1-3,.73l-.51.06a1.55,1.55,0,0,1,.14-.51c.07-.12.2-.23.71-.62a1.21,1.21,0,0,1,.28-.13c.17-.07.39-.14.66-.22.53-.15,1.2-.31,1.93-.47,1.46-.31,3.12-.61,4.27-.8a2.8,2.8,0,0,0,2.22-2Zm-11,6.45h0Z" transform="translate(-420.66 -284.14)" stroke="#000" stroke-width="1.11"/><path d="M597.25,351.86l6.58-.57s4.91-2.48,4-.27-2.57,5.89-1.86,8.39a11.39,11.39,0,0,0,3.56,5.09,1.39,1.39,0,0,1-.41,2.33l-11.57,3.55Z" transform="translate(-420.66 -284.14)"/><path d="M579.54,316a5.53,5.53,0,0,1,5.64-5.21l17.56.34a5.53,5.53,0,0,1,5.43,5.46l.43,31.16a3.31,3.31,0,0,1-3.32,3.36h-3.83a2.22,2.22,0,0,0-2.22,2.22v14.95a2.21,2.21,0,0,1-2.21,2.22h-29.3a2.21,2.21,0,0,1-2.22-2.22V352.92a2.22,2.22,0,0,1,1.82-2.18l7.74-1.41a3.33,3.33,0,0,0,2.72-3.08Z" transform="translate(-420.66 -284.14)" fill="gray"/><path d="M579.54,316a5.53,5.53,0,0,1,5.64-5.21l17.56.34a5.53,5.53,0,0,1,5.43,5.46l.43,31.16a3.31,3.31,0,0,1-3.32,3.36h-3.83a2.22,2.22,0,0,0-2.22,2.22v14.95a2.21,2.21,0,0,1-2.21,2.22h-29.3a2.21,2.21,0,0,1-2.22-2.22V352.92a2.22,2.22,0,0,1,1.82-2.18l7.74-1.41a3.33,3.33,0,0,0,2.72-3.08Z" transform="translate(-420.66 -284.14)" fill="url(#h)"/><path d="M579.81,316a5.28,5.28,0,0,1,5.36-5l17.56.35a5.26,5.26,0,0,1,5.16,5.18l.43,31.16a3,3,0,0,1-3,3.09h-3.83a2.48,2.48,0,0,0-2.49,2.49v14.95a1.94,1.94,0,0,1-1.94,1.94h-29.3a1.94,1.94,0,0,1-1.94-1.94V352.92a1.93,1.93,0,0,1,1.59-1.9l7.74-1.42a3.6,3.6,0,0,0,2.95-3.33Z" transform="translate(-420.66 -284.14)" fill="none" stroke="#000" stroke-width="0.55"/><path d="M607.74,347a.51.51,0,0,1,.48-.3c.56,0,1.35,0,2,.07l.26,0c-.19.21-.44.47-.73.81a24.68,24.68,0,0,0-3.28,5.49,5.64,5.64,0,0,1-.79,1.35c-.21.25-.33.26-.35.26s-.1,0-.26-.14a4.47,4.47,0,0,1-.53-.64l-.22-.32c-.13-.19-.27-.39-.41-.57a4.39,4.39,0,0,0-.77-.84,1.77,1.77,0,0,0-1.13-.43,2,2,0,0,0-1.29.55c-.56.48-1,.82-1.27,1.06,0-.13,0-.27.06-.43s.08-.44.12-.7a1.54,1.54,0,0,1,.74-.82,6.51,6.51,0,0,1,1.3-.51c.52-.16,2.05-.44,3.16-.64a2.79,2.79,0,0,0,2-1.51l.87-1.76-.5-.25Zm3.23-.71v0Zm-12,7.41h0Zm.45.27h0Z" transform="translate(-420.66 -284.14)" stroke="#000" stroke-width="1.11"/><path d="M593,348.47a2.47,2.47,0,0,1,1.22-4l13.53-3.87a3.64,3.64,0,1,1,1.41,7.11l-14,1.59A2.46,2.46,0,0,1,593,348.47Z" transform="translate(-420.66 -284.14)"/><path d="M593,348.47a2.47,2.47,0,0,1,1.22-4l13.53-3.87a3.64,3.64,0,1,1,1.41,7.11l-14,1.59A2.46,2.46,0,0,1,593,348.47Z" transform="translate(-420.66 -284.14)" fill="url(#i)"/><ellipse cx="596.39" cy="344.4" rx="1.75" ry="0.34" transform="translate(-471.64 -174.68) rotate(-10.06)" fill="#302f2f"/><ellipse cx="596.39" cy="344.4" rx="1.75" ry="0.34" transform="translate(-471.64 -174.68) rotate(-10.06)" fill="url(#j)"/></g><path d="M585.49,351.08a3.4,3.4,0,0,1,1.38-5.52l18.31-6.39a5,5,0,1,1,2.49,9.68l-19.1,3.27A3.42,3.42,0,0,1,585.49,351.08Z" transform="translate(-420.66 -284.14)"/><path d="M585.49,351.08a3.4,3.4,0,0,1,1.38-5.52l18.31-6.39a5,5,0,1,1,2.49,9.68l-19.1,3.27A3.42,3.42,0,0,1,585.49,351.08Z" transform="translate(-420.66 -284.14)" fill="url(#k)"/><ellipse cx="589.92" cy="345.52" rx="2.53" ry="0.66" transform="translate(-477.9 -158.99) rotate(-11.55)" fill="#302f2f"/><ellipse cx="589.92" cy="345.52" rx="2.53" ry="0.66" transform="translate(-477.9 -158.99) rotate(-11.55)" fill="url(#l)"/><path d="M601.62,348.3a.8.8,0,0,1,.77-.58h2.77l-4,5.19a2.37,2.37,0,0,1-1.09.78c-1.69.58-5.51,1.87-8.88,2.83a43.47,43.47,0,0,1-4.32,1.05,6.63,6.63,0,0,1-.74.09,2.52,2.52,0,0,1,.21-.74c.11-.18.29-.33,1-.9a2.37,2.37,0,0,1,.41-.19c.25-.1.57-.2,1-.31.77-.22,1.74-.45,2.8-.68,2.12-.46,4.54-.89,6.2-1.17a4.08,4.08,0,0,0,3.22-2.88Zm-16,9.36Z" transform="translate(-420.66 -284.14)" stroke="#000" stroke-width="1.61"/><path d="M631.25,356.9l9.55-.83s7.12-3.6,5.88-.4-3.73,8.55-2.7,12.17a16.41,16.41,0,0,0,5.16,7.39,2,2,0,0,1-.6,3.38l-16.78,5.16Z" transform="translate(-420.66 -284.14)"/><path d="M605.55,304.81a8,8,0,0,1,8.18-7.57l25.48.5a8,8,0,0,1,7.88,7.92l.63,45.2a4.82,4.82,0,0,1-4.82,4.89h-5.56a3.21,3.21,0,0,0-3.21,3.22v21.7a3.22,3.22,0,0,1-3.22,3.21H588.4a3.22,3.22,0,0,1-3.22-3.21V358.43a3.22,3.22,0,0,1,2.64-3.16l11.24-2a4.81,4.81,0,0,0,3.94-4.46Z" transform="translate(-420.66 -284.14)" fill="gray"/><path d="M605.55,304.81a8,8,0,0,1,8.18-7.57l25.48.5a8,8,0,0,1,7.88,7.92l.63,45.2a4.82,4.82,0,0,1-4.82,4.89h-5.56a3.21,3.21,0,0,0-3.21,3.22v21.7a3.22,3.22,0,0,1-3.22,3.21H588.4a3.22,3.22,0,0,1-3.22-3.21V358.43a3.22,3.22,0,0,1,2.64-3.16l11.24-2a4.81,4.81,0,0,0,3.94-4.46Z" transform="translate(-420.66 -284.14)" fill="url(#m)"/><path d="M606,304.83a7.64,7.64,0,0,1,7.77-7.19l25.49.5a7.64,7.64,0,0,1,7.48,7.53l.63,45.2a4.42,4.42,0,0,1-4.42,4.48h-5.56a3.62,3.62,0,0,0-3.62,3.62v21.7a2.81,2.81,0,0,1-2.81,2.81H588.4a2.81,2.81,0,0,1-2.81-2.81V358.43a2.81,2.81,0,0,1,2.3-2.76l11.24-2.05a5.22,5.22,0,0,0,4.27-4.84Z" transform="translate(-420.66 -284.14)" fill="none" stroke="#000" stroke-width="0.8"/><path d="M646.46,349.77a.76.76,0,0,1,.7-.44c.81,0,2,0,2.92.1l.39,0c-.29.29-.65.68-1.07,1.17a35.25,35.25,0,0,0-4.75,8,8.6,8.6,0,0,1-1.15,2c-.31.36-.48.38-.51.38s-.14,0-.37-.22a5.8,5.8,0,0,1-.78-.92c-.1-.14-.2-.3-.32-.46s-.39-.57-.59-.83a6.58,6.58,0,0,0-1.13-1.23,2.64,2.64,0,0,0-1.64-.62,3,3,0,0,0-1.87.81c-.8.69-1.4,1.19-1.84,1.53,0-.19.06-.4.1-.63s.1-.63.16-1a2.3,2.3,0,0,1,1.08-1.19,10.08,10.08,0,0,1,1.88-.74c.76-.23,3-.64,4.6-.92a4.06,4.06,0,0,0,2.93-2.2Zm4.7-1v0Zm-17.45,10.75h0Zm.66.38v0Z" transform="translate(-420.66 -284.14)" stroke="#000" stroke-width="1.61"/><path d="M625,352a3.58,3.58,0,0,1,1.78-5.72l19.62-5.63A5.28,5.28,0,1,1,648.48,351l-20.29,2.3A3.56,3.56,0,0,1,625,352Z" transform="translate(-420.66 -284.14)"/><path d="M625,352a3.58,3.58,0,0,1,1.78-5.72l19.62-5.63A5.28,5.28,0,1,1,648.48,351l-20.29,2.3A3.56,3.56,0,0,1,625,352Z" transform="translate(-420.66 -284.14)" fill="url(#n)"/><ellipse cx="630" cy="346.07" rx="2.53" ry="0.5" transform="translate(-471.41 -168.79) rotate(-10.06)" fill="#302f2f"/><ellipse cx="630" cy="346.07" rx="2.53" ry="0.5" transform="translate(-471.41 -168.79) rotate(-10.06)" fill="url(#o)"/><g opacity="0.7"><path d="M524.75,296.28c23.27-17.62,16.76,25.76,84,23.16s82.67-45.56,102.11-23.16,0,80.74,0,80.74-6.13,18.82-93.37,18.82-92.72-19.12-92.72-19.12S502.45,313.16,524.75,296.28Z" transform="translate(-420.66 -284.14)" fill="#e6e6e6"/><path d="M524.75,296.28c23.27-17.62,16.76,25.76,84,23.16s82.67-45.56,102.11-23.16,0,80.74,0,80.74-6.13,18.82-93.37,18.82-92.72-19.12-92.72-19.12S502.45,313.16,524.75,296.28Z" transform="translate(-420.66 -284.14)" fill="url(#p)"/></g></svg>