<svg xmlns="http://www.w3.org/2000/svg" xmlns:xlink="http://www.w3.org/1999/xlink" viewBox="0 0 20 32"><defs><linearGradient id="a" x1="410.61" y1="413.59" x2="428.82" y2="407.46" gradientTransform="matrix(1, 0, 0, -1, 196.31, 754.34)" gradientUnits="userSpaceOnUse"><stop offset="0" stop-color="#fff"/><stop offset="0.06" stop-color="#8a008d"/><stop offset="0.13" stop-color="#430044"/><stop offset="0.38"/><stop offset="0.78" stop-color="#bd00ff" stop-opacity="0.42"/><stop offset="1" stop-color="#bd00ff" stop-opacity="0"/></linearGradient><linearGradient id="b" x1="431.38" y1="394.69" x2="413.97" y2="400.59" gradientTransform="matrix(1, 0, 0, -1, 196.31, 754.34)" gradientUnits="userSpaceOnUse"><stop offset="0" stop-color="#fff"/><stop offset="0" stop-color="#8a008d"/><stop offset="0" stop-color="#430044"/><stop offset="0.38"/><stop offset="0.78" stop-color="#bd00ff" stop-opacity="0.42"/><stop offset="1" stop-color="#bd00ff" stop-opacity="0"/></linearGradient><linearGradient id="c" x1="408.37" y1="408.89" x2="448.31" y2="394.06" gradientTransform="matrix(1, 0, 0, -1, 196.31, 754.34)" gradientUnits="userSpaceOnUse"><stop offset="0" stop-color="#fff"/><stop offset="0.06" stop-color="#8a008d"/><stop offset="0.13" stop-color="#430044"/><stop offset="0.38"/><stop offset="0.78" stop-color="#bd00ff" stop-opacity="0.42"/><stop offset="1" stop-color="#bd00ff" stop-opacity="0"/></linearGradient><linearGradient id="d" x1="418.37" y1="422.26" x2="423.87" y2="413.85" gradientTransform="matrix(1, 0, 0, -1, 196.31, 754.34)" gradientUnits="userSpaceOnUse"><stop offset="0.04" stop-color="#c075c1"/><stop offset="0.08" stop-color="#8a008d"/><stop offset="0.11" stop-color="#430044"/><stop offset="0.38"/><stop offset="0.78" stop-color="#bd00ff" stop-opacity="0.42"/><stop offset="1" stop-color="#bd00ff" stop-opacity="0"/></linearGradient><linearGradient id="e" x1="420.7" y1="421.58" x2="421.66" y2="414.64" xlink:href="#c"/><linearGradient id="f" x1="418.79" y1="394" x2="423.47" y2="386.15" gradientTransform="matrix(1, 0, 0, -1, 196.31, 754.34)" gradientUnits="userSpaceOnUse"><stop offset="0" stop-color="#fff"/><stop offset="0" stop-color="#8a008d"/><stop offset="0" stop-color="#250026"/><stop offset="0.86"/><stop offset="0.97" stop-color="#ac00a5" stop-opacity="0.42"/><stop offset="0.99" stop-color="#68307b" stop-opacity="0"/></linearGradient><linearGradient id="g" x1="420.7" y1="391.18" x2="421.66" y2="384.24" xlink:href="#c"/><linearGradient id="h" x1="427.79" y1="414.26" x2="411.82" y2="412.55" xlink:href="#c"/><linearGradient id="i" x1="413.69" y1="416.51" x2="435.74" y2="401.76" gradientTransform="matrix(1, 0, 0, -1, 196.31, 754.34)" gradientUnits="userSpaceOnUse"><stop offset="0" stop-color="#8a008d"/><stop offset="0.21" stop-color="#430044"/><stop offset="1"/></linearGradient><linearGradient id="j" x1="416.06" y1="397.4" x2="430.41" y2="386.32" xlink:href="#i"/></defs><path d="M609.05,336.29s1.41-.51.9,0-1.07,7.67,0,8.54,6.35,4.64,6.35,4.64l.27.26s-6.62-3.53-7.52-4.9S609.05,336.29,609.05,336.29Z" transform="translate(-607.32 -334.16)"/><path d="M609.05,336.29s1.41-.51.9,0-1.07,7.67,0,8.54,6.35,4.64,6.35,4.64l.27.26s-6.62-3.53-7.52-4.9S609.05,336.29,609.05,336.29Z" transform="translate(-607.32 -334.16)" fill="url(#a)"/><path d="M625.67,364s-1.25.29-.9,0,1.67-6.91,0-8.29-5.87-4.39-5.87-4.39l-.42-.31s6.29,3.72,7.19,4.7S625.67,364,625.67,364Z" transform="translate(-607.32 -334.16)"/><path d="M625.67,364s-1.25.29-.9,0,1.67-6.91,0-8.29-5.87-4.39-5.87-4.39l-.42-.31s6.29,3.72,7.19,4.7S625.67,364,625.67,364Z" transform="translate(-607.32 -334.16)" fill="url(#b)"/><path d="M624.89,336.29h.78s1.18,4.12,0,5.92-4.75,5-8.1,8.13a78.66,78.66,0,0,0-7.63,7.6c-1.5,1.92,0,6.09,0,6.09h-.89s-1.45-4,0-6.09,4.88-5,8.18-8c3.08-2.8,6.5-5.83,7.66-7.71S624.89,336.29,624.89,336.29Z" transform="translate(-607.32 -334.16)"/><path d="M624.89,336.29h.78s1.18,4.12,0,5.92-4.75,5-8.1,8.13a78.66,78.66,0,0,0-7.63,7.6c-1.5,1.92,0,6.09,0,6.09h-.89s-1.45-4,0-6.09,4.88-5,8.18-8c3.08-2.8,6.5-5.83,7.66-7.71S624.89,336.29,624.89,336.29Z" transform="translate(-607.32 -334.16)" fill="url(#c)"/><path d="M609.11,336a.56.56,0,0,1,.55-.48c2.64,0,15.37-.13,15.59,0a1.32,1.32,0,0,1,.43.79c.06.23-5.89.12-8.63.12-2.16,0-8,.05-8-.13Z" transform="translate(-607.32 -334.16)"/><path d="M609.11,336a.56.56,0,0,1,.55-.48c2.64,0,15.37-.13,15.59,0a1.32,1.32,0,0,1,.43.79c.06.23-5.89.12-8.63.12-2.16,0-8,.05-8-.13Z" transform="translate(-607.32 -334.16)" fill="url(#d)"/><path d="M608.12,334.16h18.4a.8.8,0,0,1,.8.8h0a.8.8,0,0,1-.8.8h-18.4a.8.8,0,0,1-.8-.8h0A.8.8,0,0,1,608.12,334.16Z" transform="translate(-607.32 -334.16)"/><path d="M608.12,334.16h18.4a.8.8,0,0,1,.8.8h0a.8.8,0,0,1-.8.8h-18.4a.8.8,0,0,1-.8-.8h0A.8.8,0,0,1,608.12,334.16Z" transform="translate(-607.32 -334.16)" fill="url(#e)"/><path d="M609.05,364c-.1-.31,3.76-.21,7.78-.22,4.34,0,8.88-.1,8.84.22a1,1,0,0,1-.46.79s-15.52.06-15.71,0S609.24,364.65,609.05,364Z" transform="translate(-607.32 -334.16)"/><path d="M609.05,364c-.1-.31,3.76-.21,7.78-.22,4.34,0,8.88-.1,8.84.22a1,1,0,0,1-.46.79s-15.52.06-15.71,0S609.24,364.65,609.05,364Z" transform="translate(-607.32 -334.16)" fill="url(#f)"/><path d="M608.12,364.55h18.4a.8.8,0,0,1,.8.8h0a.8.8,0,0,1-.8.81h-18.4a.8.8,0,0,1-.8-.81h0A.8.8,0,0,1,608.12,364.55Z" transform="translate(-607.32 -334.16)"/><path d="M608.12,364.55h18.4a.8.8,0,0,1,.8.8h0a.8.8,0,0,1-.8.81h-18.4a.8.8,0,0,1-.8-.81h0A.8.8,0,0,1,608.12,364.55Z" transform="translate(-607.32 -334.16)" fill="url(#g)"/><path d="M616.05,342.63c-1.39-.38-1.81-2.17-1-2.78,2.25-1.64,4.32-4,7-.49a4.57,4.57,0,0,1,.85,3.91C622.65,343.49,617.45,343,616.05,342.63Z" transform="translate(-607.32 -334.16)"/><path d="M616.05,342.63c-1.39-.38-1.81-2.17-1-2.78,2.25-1.64,4.32-4,7-.49a4.57,4.57,0,0,1,.85,3.91C622.65,343.49,617.45,343,616.05,342.63Z" transform="translate(-607.32 -334.16)" fill="url(#h)"/><path d="M622.88,343.51c-.78,1.14-4,4.42-5.86,4.42s-5-2.76-6.08-4.21c-1.42-2,4.24-8.7,5.13-6,1,3.05,1.18,3.84,4.13,4.05,1.52.11,2.28-1.87,2.38-1.66C622.78,340.55,623.67,342.37,622.88,343.51Z" transform="translate(-607.32 -334.16)"/><path d="M622.88,343.51c-.78,1.14-4,4.42-5.86,4.42s-5-2.76-6.08-4.21c-1.42-2,4.24-8.7,5.13-6,1,3.05,1.18,3.84,4.13,4.05,1.52.11,2.28-1.87,2.38-1.66C622.78,340.55,623.67,342.37,622.88,343.51Z" transform="translate(-607.32 -334.16)" fill="url(#i)"/><path d="M621.78,361c.58,2.54-3.3,2.26-4.61,2.22s-4.29,0-4.29-2c0-.92.47-1.24,1.16-2.16s2.38-2.57,3.13-2.57S621.21,358.43,621.78,361Z" transform="translate(-607.32 -334.16)"/><path d="M621.78,361c.58,2.54-3.3,2.26-4.61,2.22s-4.29,0-4.29-2c0-.92.47-1.24,1.16-2.16s2.38-2.57,3.13-2.57S621.21,358.43,621.78,361Z" transform="translate(-607.32 -334.16)" fill="url(#j)"/></svg>