<svg xmlns="http://www.w3.org/2000/svg" xmlns:xlink="http://www.w3.org/1999/xlink" viewBox="0 0 99.91 60.49"><defs><linearGradient id="a" x1="567.43" y1="330.81" x2="667.27" y2="330.81" gradientUnits="userSpaceOnUse"><stop offset="0" stop-color="#8a008d"/><stop offset="0.21" stop-color="#430044"/><stop offset="1"/></linearGradient><linearGradient id="b" x1="567.36" y1="336.67" x2="662.69" y2="336.67" xlink:href="#a"/><linearGradient id="c" x1="567.66" y1="364.77" x2="574.07" y2="364.77" xlink:href="#a"/><linearGradient id="d" x1="576.4" y1="364.87" x2="582.68" y2="364.87" xlink:href="#a"/><linearGradient id="e" x1="585.7" y1="364.77" x2="592.22" y2="364.77" xlink:href="#a"/><linearGradient id="f" x1="594.95" y1="364.77" x2="601.48" y2="364.77" xlink:href="#a"/><linearGradient id="g" x1="603.72" y1="364.77" x2="611.21" y2="364.77" xlink:href="#a"/><linearGradient id="h" x1="613.87" y1="364.87" x2="620.15" y2="364.87" xlink:href="#a"/><linearGradient id="i" x1="623.25" y1="364.77" x2="629.56" y2="364.77" xlink:href="#a"/><linearGradient id="j" x1="632.57" y1="364.77" x2="639.18" y2="364.77" xlink:href="#a"/><linearGradient id="k" x1="648.91" y1="364.77" x2="654.81" y2="364.77" xlink:href="#a"/><linearGradient id="l" x1="656.53" y1="364.77" x2="663.49" y2="364.77" xlink:href="#a"/><linearGradient id="m" x1="641.76" y1="364.78" x2="645.68" y2="364.78" xlink:href="#a"/><linearGradient id="n" x1="567.66" y1="378.05" x2="663.13" y2="378.05" xlink:href="#a"/></defs><path d="M666.53,320.67a1.58,1.58,0,0,1,.48,1.15,1.61,1.61,0,0,1-.48,1.18,1.58,1.58,0,0,1-1.16.47,1.68,1.68,0,0,1-1.16-.47,1.63,1.63,0,0,1-.45-1.18,1.59,1.59,0,0,1,.45-1.15,1.62,1.62,0,0,1,1.16-.48A1.57,1.57,0,0,1,666.53,320.67Zm.19-.18a1.91,1.91,0,0,0-2.68,0,1.9,1.9,0,1,0,2.68,2.68,1.83,1.83,0,0,0,.55-1.35A1.8,1.8,0,0,0,666.72,320.49Zm-1.07,1.24a.74.74,0,0,1-.34.06H665V321h.32a1.18,1.18,0,0,1,.44.06.36.36,0,0,1,.13.31.28.28,0,0,1-.22.32Zm-1,1.14H665V322h.29a.84.84,0,0,1,.41.07c.13.08.19.24.19.49v.16a.36.36,0,0,0,0,.11h.34c0-.1,0-.21,0-.29v-.16a.42.42,0,0,0-.11-.32.47.47,0,0,0-.36-.21,1,1,0,0,0,.31-.09.45.45,0,0,0,.2-.42.52.52,0,0,0-.32-.52,1.57,1.57,0,0,0-.57-.08h-.72v2.09Zm-80.84-2.95V341.7H567.43V319.92ZM574.23,339c3.77,0,6.81-3.67,6.81-8.19s-3-8.15-6.81-8.15h-3.41V339Zm26.7-19.05V341.7H584.59V319.92Zm-6.8,2.75c-3.76,0-6.82,3.65-6.82,8.17s3.06,8.16,6.82,8.16h3.41V322.67ZM612,326h5c2.73,0,3.95,1,3.95,3.8v2.05c0,2.69-.86,3.95-3.6,3.95H612Zm2.62,7.52h2.29c1,0,1.32-.63,1.32-1.67v-2.05c0-1.27-.41-1.52-1.32-1.52h-2.29Zm6.74-1.24v-2.76c0-3,1.89-3.59,4.54-3.59s4.53.55,4.53,3.59v2.76c0,3-1.87,3.6-4.53,3.6s-4.54-.57-4.54-3.6Zm6.39-.27v-2.21c0-1.46-.49-1.59-1.85-1.59s-1.81.13-1.85,1.59V332c0,1.46.49,1.6,1.85,1.6s1.85-.14,1.85-1.6Zm6,1.51h4.1v2.28H631.1V326h2.61Zm4.54-7.52h5.16c2,0,3.09.36,3.09,2.5,0,1.25-.24,2.06-1.53,2.27v.11c1.43.09,1.69,1,1.69,2.19,0,2.41-1.12,2.73-3.21,2.73h-5.2V326Zm2.62,3.93h1.87c.92,0,1.15-.17,1.15-.95,0-.59-.09-.81-.83-.83h-2.19Zm0,3.74h2c.86,0,1.21-.2,1.21-1s-.31-.94-1.16-.94h-2Zm11.6-1.31v3.44h-2.6v-3.44L646.38,326h3l1.76,3.77h.09L653,326h3.05Z" transform="translate(-567.36 -319.91)" fill-rule="evenodd" fill="url(#a)"/><path d="M661.16,321.45v18.73H606.6V321.45Zm1.53,20.27V319.91h-57.6V341.7Zm-95.33,2.71h3.79a4,4,0,0,1,4.33,4.37c0,2.88-1.64,4.45-4.33,4.45h-3.79Zm2.3,6.85h1.09c1.74,0,2.44-.73,2.44-2.49a2.15,2.15,0,0,0-2.44-2.38h-1.09Zm16.91-6.85v8.82h-2.31v-8.82Zm17.26,8.82h-1.48l-.13-.95a3,3,0,0,1-2.46,1.14,4.6,4.6,0,0,1,0-9.19c1.83,0,3.78,1,4,3.18h-2.29c-.07-.74-.82-1.21-1.73-1.21-1.49,0-2.06,1.31-2.06,2.61s.57,2.64,2.06,2.64c1.13,0,1.9-.54,2-1.34h-1.61v-1.7h3.7v4.82Zm11.3-8.82v8.82h-2.3v-8.82Zm16.12,2h-2.63v6.84h-2.29v-6.84H623.7v-2h7.55Zm10.77-2h2.33l3.3,8.82h-2.4l-.54-1.58h-3.07l-.57,1.58h-2.35Zm.14,5.53h2l-1-3.07h0Zm14.12-5.53h2.3v6.85h4.11v2h-6.41Z" transform="translate(-567.36 -319.91)" fill-rule="evenodd" fill="url(#b)"/><path d="M570.81,360.68c-1.56,0-3,.66-3,2.42s1.22,2,2.47,2.27l.84.2c.77.17,1.41.33,1.41.95,0,.8-.93,1-1.61,1-.84,0-1.68-.32-1.68-1.25h-1.56c0,1.86,1.48,2.6,3.16,2.6,2.4,0,3.25-1.23,3.25-2.48,0-1.61-1.23-1.95-2-2.15l-1.9-.47c-.34-.07-.84-.17-.84-.79s.73-1,1.39-1c.89,0,1.58.34,1.58,1.18h1.56c0-2.14-2-2.53-3-2.53Z" transform="translate(-567.36 -319.91)" fill-rule="evenodd" fill="url(#c)"/><path d="M582.68,360.88h-1.62V366c0,.94-.46,1.49-1.61,1.49a1.37,1.37,0,0,1-1.42-1.57v-5H576.4V366a2.81,2.81,0,0,0,.61,1.89,3.34,3.34,0,0,0,2.47.95c2,0,3.2-.88,3.2-2.94Z" transform="translate(-567.36 -319.91)" fill-rule="evenodd" fill="url(#d)"/><path d="M585.7,368.67h1.59v-3.05H589c1.2,0,1.27.41,1.27,1.48a5.16,5.16,0,0,0,.17,1.57h1.8v-.21c-.35-.13-.35-.41-.35-1.55,0-1.45-.34-1.69-1-2a1.86,1.86,0,0,0,1.2-1.86,2.19,2.19,0,0,0-2.45-2.2H585.7Zm1.59-4.36v-2.09h2c1,0,1.14.61,1.14,1,0,.77-.41,1.07-1.26,1.07Z" transform="translate(-567.36 -319.91)" fill-rule="evenodd" fill="url(#e)"/><path d="M595,368.67h1.6v-3.05h1.68c1.21,0,1.27.41,1.27,1.48a5.09,5.09,0,0,0,.18,1.57h1.8v-.21c-.35-.13-.35-.41-.35-1.55,0-1.45-.35-1.69-1-2a1.87,1.87,0,0,0,1.21-1.86,2.2,2.2,0,0,0-2.46-2.2H595Zm1.6-4.36v-2.09h2c.95,0,1.14.61,1.14,1,0,.77-.41,1.07-1.26,1.07Z" transform="translate(-567.36 -319.91)" fill-rule="evenodd" fill="url(#f)"/><path d="M603.72,364.77c0,2.33,1.23,4.1,3.74,4.1,2.31,0,3.75-1.77,3.75-4.1s-1.44-4.09-3.75-4.09C605,360.68,603.72,362.45,603.72,364.77Zm3.74,2.68c-1.32,0-2.11-1.12-2.11-2.68s.79-2.68,2.11-2.68,2.12,1.13,2.12,2.68S608.79,367.45,607.46,367.45Z" transform="translate(-567.36 -319.91)" fill-rule="evenodd" fill="url(#g)"/><path d="M620.15,360.88h-1.62V366c0,.94-.46,1.49-1.61,1.49a1.37,1.37,0,0,1-1.42-1.57v-5h-1.63V366a2.81,2.81,0,0,0,.61,1.89,3.34,3.34,0,0,0,2.47.95c2,0,3.2-.88,3.2-2.94Z" transform="translate(-567.36 -319.91)" fill-rule="evenodd" fill="url(#h)"/><path d="M629.56,360.88H628v5.3h0l-3.08-5.3h-1.65v7.79h1.56v-5.28h0l3.08,5.28h1.65Z" transform="translate(-567.36 -319.91)" fill-rule="evenodd" fill="url(#i)"/><path d="M632.57,368.67h3.37c2.58,0,3.24-2.41,3.24-4.08,0-1.48-.54-3.71-3.17-3.71h-3.44Zm1.59-6.45h1.57c.69,0,1.79.19,1.79,2.49,0,1.28-.45,2.61-1.77,2.61h-1.59Z" transform="translate(-567.36 -319.91)" fill-rule="evenodd" fill="url(#j)"/><path d="M648.91,368.67h5.9v-1.41h-4.34v-2h3.82V364h-3.82v-1.73h4.16v-1.34h-5.72Z" transform="translate(-567.36 -319.91)" fill-rule="evenodd" fill="url(#k)"/><path d="M656.53,368.67h1.91L660,366l1.47,2.66h2l-2.55-4.05,2.39-3.74h-1.88L660,363.39l-1.4-2.51h-2l2.39,3.81Z" transform="translate(-567.36 -319.91)" fill-rule="evenodd" fill="url(#l)"/><path d="M645.68,364.78a2,2,0,0,1-2,2h0a2,2,0,0,1-2-2h0a2,2,0,0,1,2-2h0a2,2,0,0,1,2,2Z" transform="translate(-567.36 -319.91)" fill-rule="evenodd" fill="url(#m)"/><path d="M567.66,375.81v4.46h.93v-4.46Zm4.19,4.46v-3.15l1.8,3.15h.93v-4.46h-.86v3.13l-1.78-3.13h-1v4.46Zm7.78-.28a2.15,2.15,0,0,0,1.37.41,2,2,0,0,0,1.31-.41,1.32,1.32,0,0,0,.47-1,1.07,1.07,0,0,0-.4-.9,2,2,0,0,0-.76-.32l-.76-.18a3.12,3.12,0,0,1-.58-.18.41.41,0,0,1-.22-.37.45.45,0,0,1,.23-.4,1,1,0,0,1,.56-.13,1.42,1.42,0,0,1,.54.09.66.66,0,0,1,.35.57h.9a1.35,1.35,0,0,0-.53-1.07,1.86,1.86,0,0,0-1.19-.37,1.8,1.8,0,0,0-1.29.4,1.29,1.29,0,0,0-.42,1,1,1,0,0,0,.44.94,2.69,2.69,0,0,0,1,.36l.46.09a2.17,2.17,0,0,1,.62.22.37.37,0,0,1,.18.33.53.53,0,0,1-.39.54,2.33,2.33,0,0,1-.53.06,1,1,0,0,1-.78-.28,1.11,1.11,0,0,1-.16-.47h-.88a1.31,1.31,0,0,0,.49,1.11Zm4.93-4.18v4.46h3.37v-.8h-2.45v-1.13h2.15v-.78h-2.15v-.95h2.35v-.8Zm5.16,4.46v-4.46h.94v3.66h2.2v.8Zm4.88-4.46v4.46H598v-.8H595.5v-1.13h2.18v-.78H595.5v-.95h2.37v-.8Zm5.52,4a1.94,1.94,0,0,0,1.51.61,1.76,1.76,0,0,0,1.27-.46,2,2,0,0,0,.62-1.19h-.91a1.62,1.62,0,0,1-.24.51.9.9,0,0,1-.75.34,1,1,0,0,1-.79-.39,1.74,1.74,0,0,1-.3-1.12,2,2,0,0,1,.28-1.14.92.92,0,0,1,.81-.41.94.94,0,0,1,.75.29,1.17,1.17,0,0,1,.24.49h.92a1.55,1.55,0,0,0-.31-.84,1.85,1.85,0,0,0-1.64-.74,1.87,1.87,0,0,0-1.38.55,2.43,2.43,0,0,0-.63,1.79,2.49,2.49,0,0,0,.55,1.71Zm4.81-4h3.6v.8H607.2v3.66h-.94v-3.66h-1.33Zm5.24,0v4.46h3.37v-.8h-2.46v-1.13h2.15v-.78h-2.15v-.95h2.35v-.8Zm7.77,1.16a2,2,0,0,1,.21,1,2.06,2.06,0,0,1-.14.83.94.94,0,0,1-.91.67h-.86V376.6h.86a.9.9,0,0,1,.84.37Zm-2.6-1.16v4.46h1.91a1.62,1.62,0,0,0,1.49-.82,3.07,3.07,0,0,0,.36-1.51,3.1,3.1,0,0,0-.09-.73,1.92,1.92,0,0,0-.31-.72,1.45,1.45,0,0,0-.76-.57,2.69,2.69,0,0,0-.69-.11Zm7.32,0h3.59v.8h-1.32v3.66H624v-3.66h-1.33Zm6.12,4.46h-.91v-4.46h.91v1.72h1.75v-1.72h.92v4.46h-.92v-2h-1.75Zm4.65-4.46v4.46h3.37v-.8h-2.47v-1.13h2.16v-.78h-2.16v-.95h2.36v-.8Zm7.5,2.77h-1.11l.56-1.74Zm-1.67,1.69.31-.92h1.63l.3.92h1l-1.59-4.46h-1l-1.58,4.46Zm4.5-4.46h3.61v.8H646v3.66h-.93v-3.66h-1.33Zm7.67.87a.54.54,0,0,1,.27.55.49.49,0,0,1-.28.5,1.28,1.28,0,0,1-.47.07H649.9v-1.2H651a1,1,0,0,1,.45.08Zm-2.44-.87v4.46h.91v-1.73h1a.86.86,0,0,1,.56.12.84.84,0,0,1,.15.58v.4a2.23,2.23,0,0,0,0,.39,2.07,2.07,0,0,0,.06.24h1v-.1a.5.5,0,0,1-.16-.26,2.05,2.05,0,0,1,0-.42v-.3a1.49,1.49,0,0,0-.12-.69.81.81,0,0,0-.45-.35.87.87,0,0,0,.53-.43,1.35,1.35,0,0,0,.17-.63,1.25,1.25,0,0,0-.09-.46,1.1,1.1,0,0,0-.23-.37,1.06,1.06,0,0,0-.43-.32,2,2,0,0,0-.72-.13Zm5.54,0v4.46h3.38v-.8h-2.47v-1.13h2.16v-.78h-2.16v-.95h2.35v-.8ZM660,380a2.17,2.17,0,0,0,1.37.41,2,2,0,0,0,1.32-.41,1.34,1.34,0,0,0,.46-1,1.07,1.07,0,0,0-.4-.9,2,2,0,0,0-.76-.32l-.76-.18a4,4,0,0,1-.59-.18.4.4,0,0,1-.21-.37.44.44,0,0,1,.22-.4,1.06,1.06,0,0,1,.58-.13,1.49,1.49,0,0,1,.54.09.67.67,0,0,1,.34.57h.9a1.37,1.37,0,0,0-.52-1.07,1.9,1.9,0,0,0-1.2-.37,1.74,1.74,0,0,0-1.28.4,1.27,1.27,0,0,0-.43,1,1,1,0,0,0,.44.94,2.79,2.79,0,0,0,1,.36l.48.09a1.9,1.9,0,0,1,.6.22.38.38,0,0,1,.2.33.54.54,0,0,1-.4.54,2.42,2.42,0,0,1-.53.06.94.94,0,0,1-.78-.28,1.1,1.1,0,0,1-.17-.47h-.88A1.32,1.32,0,0,0,660,380Z" transform="translate(-567.36 -319.91)" fill-rule="evenodd" fill="url(#n)"/></svg>