<svg xmlns="http://www.w3.org/2000/svg" xmlns:xlink="http://www.w3.org/1999/xlink" viewBox="0 0 94.35 74.7"><defs><linearGradient id="a" x1="574.01" y1="334.34" x2="600.59" y2="334.34" gradientUnits="userSpaceOnUse"><stop offset="0" stop-color="#8a008d"/><stop offset="0.21" stop-color="#430044"/><stop offset="1"/></linearGradient><linearGradient id="b" x1="634.05" y1="334.34" x2="660.63" y2="334.34" xlink:href="#a"/><linearGradient id="c" x1="570.14" y1="373.41" x2="664.49" y2="373.41" xlink:href="#a"/></defs><path d="M590.87,326.91a5.17,5.17,0,0,1,3.16-3.79l4.6-1.84a3.12,3.12,0,0,0,2-2.89V316a3.12,3.12,0,0,0-4.76-2.65s-9.45,3-10.82,6.69-11,35.75-11,35.75h11Z" transform="translate(-570.14 -312.89)" fill="url(#a)"/><path d="M636,321.28l4.6,1.84a5.2,5.2,0,0,1,3.16,3.79l5.86,28.88h11S651,323.7,649.63,320s-10.83-6.69-10.83-6.69a3.12,3.12,0,0,0-4.75,2.65v2.39A3.1,3.1,0,0,0,636,321.28Z" transform="translate(-570.14 -312.89)" fill="url(#b)"/><path d="M661.37,359.23H573.26a3.12,3.12,0,0,0-3.12,3.12v4.21a3.17,3.17,0,0,0,.85,2.15l2.89,3.05L578,384a5.19,5.19,0,0,0,4.93,3.55h22.55a5.21,5.21,0,0,0,5-3.9L614,370.15a3.37,3.37,0,0,1,6.72,0l3.47,13.53a5.21,5.21,0,0,0,5,3.9h22.56a5.2,5.2,0,0,0,4.93-3.55l4.09-12.27,2.88-3.05a3.12,3.12,0,0,0,.85-2.15v-4.21A3.12,3.12,0,0,0,661.37,359.23ZM606,369.55l-1.87,9.5a2.74,2.74,0,0,1-2.69,2.22H586.64A2.76,2.76,0,0,1,584,379.2l-2.39-9.54a2.28,2.28,0,0,1,2.22-2.84h20a2.28,2.28,0,0,1,1.77.83A2.32,2.32,0,0,1,606,369.55Zm47,.11-2.4,9.54a2.73,2.73,0,0,1-2.66,2.07H633.17a2.74,2.74,0,0,1-2.69-2.21l-1.87-9.51a2.32,2.32,0,0,1,.48-1.9,2.27,2.27,0,0,1,1.77-.83h20a2.29,2.29,0,0,1,2.22,2.84Z" transform="translate(-570.14 -312.89)" fill="url(#c)"/></svg>