<svg xmlns="http://www.w3.org/2000/svg" xmlns:xlink="http://www.w3.org/1999/xlink" viewBox="0 0 73.8 61.8"><defs><linearGradient id="a" x1="580.42" y1="353.65" x2="654.22" y2="353.65" gradientUnits="userSpaceOnUse"><stop offset="0" stop-color="#8a008d"/><stop offset="0.21" stop-color="#430044"/><stop offset="1"/></linearGradient><linearGradient id="b" x1="606.25" y1="337.51" x2="643.15" y2="337.51" xlink:href="#a"/></defs><path d="M590.07,380.47a2.76,2.76,0,0,0,3.79-1l5.29-8.81h36.34l5.28,8.81a2.77,2.77,0,0,0,4.75-2.85l-3.68-6.13c4.33-.29,7.12-1.05,9.13-3.07,3.25-3.24,3.25-8.46,3.25-18.89s0-15.66-3.25-18.9a9.46,9.46,0,0,0-4.59-2.44,24,24,0,1,1-43-.8h-.86c-10.44,0-15.66,0-18.9,3.24s-3.24,8.46-3.24,18.9,0,15.65,3.24,18.89c2,2,4.8,2.78,9.13,3.07l-3.67,6.13A2.76,2.76,0,0,0,590.07,380.47Zm3.26-43.89a2.77,2.77,0,0,1,2.77,2.77v5.54a2.77,2.77,0,0,1-5.53,0v-5.54A2.77,2.77,0,0,1,593.33,336.58Z" transform="translate(-580.42 -319.06)" fill-rule="evenodd" fill="url(#a)"/><path d="M624.7,356a18.45,18.45,0,1,0-18.45-18.45A18.45,18.45,0,0,0,624.7,356Zm-2.77-25.83a2.77,2.77,0,0,1,2.77-2.77,10.15,10.15,0,1,1-10.15,10.15,2.77,2.77,0,0,1,5.54,0,4.61,4.61,0,1,0,4.61-4.62A2.77,2.77,0,0,1,621.93,330.13Z" transform="translate(-580.42 -319.06)" fill-rule="evenodd" fill="url(#b)"/></svg>