<svg xmlns="http://www.w3.org/2000/svg" xmlns:xlink="http://www.w3.org/1999/xlink" viewBox="0 0 59.75 59.75"><defs><linearGradient id="a" x1="587.44" y1="350.16" x2="647.19" y2="350.16" gradientUnits="userSpaceOnUse"><stop offset="0" stop-color="#8a008d"/><stop offset="0.21" stop-color="#430044"/><stop offset="1"/></linearGradient><linearGradient id="b" x1="614.83" y1="365.09" x2="619.81" y2="365.09" xlink:href="#a"/><linearGradient id="c" x1="594.91" y1="337.71" x2="599.89" y2="337.71" xlink:href="#a"/><linearGradient id="d" x1="594.91" y1="362.6" x2="599.89" y2="362.6" xlink:href="#a"/><linearGradient id="e" x1="634.75" y1="337.71" x2="639.72" y2="337.71" xlink:href="#a"/><linearGradient id="f" x1="634.75" y1="362.6" x2="639.72" y2="362.6" xlink:href="#a"/></defs><path d="M644.7,320.28H629.77a2.48,2.48,0,0,0-2.49,2.49v19.92H607.36V322.77a2.48,2.48,0,0,0-2.49-2.49H589.93a2.48,2.48,0,0,0-2.49,2.49v54.77a2.48,2.48,0,0,0,2.49,2.49H644.7a2.48,2.48,0,0,0,2.49-2.49V322.77A2.48,2.48,0,0,0,644.7,320.28Zm-42.32,24.9v29.87h-10V325.26h10Zm12.45,5h5a2.49,2.49,0,1,1,0,5h-5a2.49,2.49,0,1,1,0-5Zm2.49,22.4a7.47,7.47,0,1,1,7.47-7.47A7.48,7.48,0,0,1,617.32,372.56Zm24.89,2.49h-10V325.26h10Z" transform="translate(-587.44 -320.28)" fill="url(#a)"/><path d="M617.32,362.6a2.49,2.49,0,1,0,2.49,2.49A2.49,2.49,0,0,0,617.32,362.6Z" transform="translate(-587.44 -320.28)" fill="url(#b)"/><path d="M597.4,345.18a2.49,2.49,0,0,0,2.49-2.49v-10a2.49,2.49,0,0,0-5,0v10A2.49,2.49,0,0,0,597.4,345.18Z" transform="translate(-587.44 -320.28)" fill="url(#c)"/><path d="M597.4,370.07a2.48,2.48,0,0,0,2.49-2.49v-10a2.49,2.49,0,0,0-5,0v10A2.48,2.48,0,0,0,597.4,370.07Z" transform="translate(-587.44 -320.28)" fill="url(#d)"/><path d="M637.24,345.18a2.49,2.49,0,0,0,2.48-2.49v-10a2.49,2.49,0,1,0-5,0v10A2.49,2.49,0,0,0,637.24,345.18Z" transform="translate(-587.44 -320.28)" fill="url(#e)"/><path d="M637.24,370.07a2.48,2.48,0,0,0,2.48-2.49v-10a2.49,2.49,0,1,0-5,0v10A2.48,2.48,0,0,0,637.24,370.07Z" transform="translate(-587.44 -320.28)" fill="url(#f)"/></svg>