<svg xmlns="http://www.w3.org/2000/svg" xmlns:xlink="http://www.w3.org/1999/xlink" viewBox="0 0 10.92 20.29"><defs><linearGradient id="a" x1="629.59" y1="412" x2="623.18" y2="376.96" gradientUnits="userSpaceOnUse"><stop offset="0" stop-color="#8a008d"/><stop offset="0.21" stop-color="#430044"/><stop offset="1"/></linearGradient></defs><path d="M631.15,390.92h-3.27a3.88,3.88,0,0,0-3.88,3.87v3.64h-1.1a1.69,1.69,0,1,0,0,3.38H624v7.46a1.94,1.94,0,0,0,1.94,1.94h.82a1,1,0,0,0,1-1v-8.43h1.5a1.94,1.94,0,0,0,1.79-1.19l.35-.85a1,1,0,0,0-.9-1.34h-2.74v-2.68a1,1,0,0,1,1-1h1.23a1.94,1.94,0,0,0,1.88-1.48l.29-1.19A1,1,0,0,0,631.15,390.92Z" transform="translate(-621.21 -390.92)" fill="url(#a)"/></svg>