<svg xmlns="http://www.w3.org/2000/svg" xmlns:xlink="http://www.w3.org/1999/xlink" viewBox="0 0 20.14 20.17"><defs><linearGradient id="a" x1="680.29" y1="202.16" x2="695.03" y2="210.69" gradientUnits="userSpaceOnUse"><stop offset="0" stop-color="#8a008d"/><stop offset="0.21" stop-color="#430044"/><stop offset="1"/></linearGradient><linearGradient id="b" x1="689.41" y1="199.02" x2="692.86" y2="201.02" xlink:href="#a"/><linearGradient id="c" x1="674.04" y1="199.52" x2="706.62" y2="218.36" xlink:href="#a"/></defs><path d="M685,209.86a5,5,0,1,0-5.35-5A5.19,5.19,0,0,0,685,209.86Zm0-8.25a3.26,3.26,0,1,1-3.47,3.25A3.36,3.36,0,0,1,685,201.61Z" transform="translate(-674.27 -195.39)" fill="url(#a)"/><path d="M690.5,200.83a1.18,1.18,0,1,0-1.25-1.18A1.21,1.21,0,0,0,690.5,200.83Z" transform="translate(-674.27 -195.39)" fill="url(#b)"/><path d="M674.79,212.08a5.18,5.18,0,0,0,3,2.95,7.43,7.43,0,0,0,2.45.47c1.07.05,1.42.06,4.15.06s3.08,0,4.15-.06a7.12,7.12,0,0,0,2.44-.47,4.92,4.92,0,0,0,1.79-1.16,4.8,4.8,0,0,0,1.16-1.79,7.43,7.43,0,0,0,.47-2.45c0-1.07.06-1.42.06-4.15s0-3.08-.06-4.16a7.43,7.43,0,0,0-.47-2.45,4.76,4.76,0,0,0-1.16-1.78,4.82,4.82,0,0,0-1.79-1.17,7.36,7.36,0,0,0-2.44-.47c-1.07,0-1.42-.06-4.15-.06s-3.08,0-4.15.06a7.43,7.43,0,0,0-2.45.47,5.26,5.26,0,0,0-3,3,7.41,7.41,0,0,0-.46,2.45c-.05,1.08-.06,1.42-.06,4.16s0,3.08.06,4.15A7.46,7.46,0,0,0,674.79,212.08Zm1.69-11.17a5.2,5.2,0,0,1,.36-1.8,3,3,0,0,1,.78-1.13,3.28,3.28,0,0,1,1.19-.72,5.84,5.84,0,0,1,1.94-.34c1.1,0,1.42-.06,4.2-.06s3.12,0,4.21.06a5.7,5.7,0,0,1,1.93.34,3.18,3.18,0,0,1,1.2.72,3.14,3.14,0,0,1,.78,1.13,5,5,0,0,1,.35,1.8c.06,1,.07,1.34.07,4s0,2.91-.07,3.94a5.1,5.1,0,0,1-.35,1.81,3.11,3.11,0,0,1-.78,1.12,3.18,3.18,0,0,1-1.2.72,5.46,5.46,0,0,1-1.93.34c-1.1.05-1.42.06-4.21.06s-3.11,0-4.2-.06a5.58,5.58,0,0,1-1.94-.34,3.15,3.15,0,0,1-1.19-.72,3,3,0,0,1-.78-1.12,5.22,5.22,0,0,1-.36-1.81c-.05-1-.06-1.33-.06-3.94S676.43,201.94,676.48,200.91Z" transform="translate(-674.27 -195.39)" fill="url(#c)"/></svg>