<svg xmlns="http://www.w3.org/2000/svg" viewBox="0 0 49.84 30.01"><path d="M617.33,361.27a14.74,14.74,0,0,0,10,3.89,15,15,0,0,0,0-30,14.74,14.74,0,0,0-10,3.89,15,15,0,0,0,0,22.23Z" transform="translate(-592.4 -335.15)" fill="#e9b040" fill-rule="evenodd"/><path d="M640.26,358.51a.46.46,0,0,1,.46-.46.48.48,0,1,1,0,.95A.46.46,0,0,1,640.26,358.51Zm.46.39a.4.4,0,0,0,.39-.39.38.38,0,0,0-.39-.36.37.37,0,0,0-.36.36A.39.39,0,0,0,640.72,358.9Zm-.05-.15h-.11v-.44h.19a.2.2,0,0,1,.1,0s0,.06,0,.11a.09.09,0,0,1-.08.1l.11.21h-.13l0-.18h-.08v-.08h.1s0,0,0-.05,0,0,0-.06h-.1Z" transform="translate(-592.4 -335.15)" fill="#e9b040" fill-rule="evenodd"/><path d="M622.15,348.57c0-.54-.16-1.05-.26-1.6h-9.12c.1-.54.26-1.05.41-1.57h8.27a15.38,15.38,0,0,0-.62-1.59h-7c.26-.55.54-1.08.85-1.6H620a13.59,13.59,0,0,0-1.13-1.57h-3a15.36,15.36,0,0,1,1.52-1.6,15,15,0,1,0,1.5,20.66h-3a18.37,18.37,0,0,1-1.13-1.6H620a11.76,11.76,0,0,0,.87-1.6h-7a16.7,16.7,0,0,1-.65-1.57h8.27a16.16,16.16,0,0,0,.44-1.59c.1-.52.21-1.06.26-1.6a13.75,13.75,0,0,0,.07-1.57c0-.54,0-1.08-.07-1.6Z" transform="translate(-592.4 -335.15)" fill="#cc2131" fill-rule="evenodd"/><path d="M640.26,353.65a.46.46,0,0,1,.46-.49.47.47,0,0,1,.49.49.49.49,0,0,1-.49.48A.48.48,0,0,1,640.26,353.65Zm.46.36a.37.37,0,1,0,0-.73.37.37,0,0,0,0,.73Zm-.05-.16h-.11v-.41h.29s0,.08,0,.13a.14.14,0,0,1-.08.1l.11.18h-.13l0-.15h-.08v-.08h.05s0,0,0,0,0,0,0,0,0,0,0,0,0,0,0,0h-.05Z" transform="translate(-592.4 -335.15)" fill="#fff" fill-rule="evenodd"/><path d="M612.26,354.5a5.13,5.13,0,0,1-1.21.2,1.19,1.19,0,0,1-1.24-1.36c0-.18,0-.36.05-.57l.1-.59.08-.49.7-4.23h1.54l-.18.93h1l-.23,1.55h-1l-.41,2.52a1,1,0,0,0,0,.26c0,.33.16.46.54.46a2.46,2.46,0,0,0,.49-.05l-.2,1.37Zm5-.06a5.81,5.81,0,0,1-1.64.24,2.48,2.48,0,0,1-2.76-2.76c0-2.14,1.18-3.68,2.83-3.68a2.06,2.06,0,0,1,2.17,2.24,7.75,7.75,0,0,1-.18,1.52h-3.22a.59.59,0,0,0,0,.2c0,.72.49,1.08,1.42,1.08a3.84,3.84,0,0,0,1.67-.38Zm-1-3.68v-.31a.71.71,0,0,0-.77-.8c-.52,0-.88.39-1,1.11Zm-16.41,3.81H598.3l.92-5.84-2.08,5.84H596l-.13-5.82-1,5.82h-1.57l1.26-7.6H597l0,4.69,1.57-4.69h2.57l-1.26,7.6Zm3.89-2.75a1.24,1.24,0,0,0-.31,0c-.92,0-1.39.36-1.39.93a.58.58,0,0,0,.59.64c.78,0,1.09-.64,1.11-1.54Zm1.29,2.75h-1.39l0-.64a1.89,1.89,0,0,1-1.7.75,1.56,1.56,0,0,1-1.44-1.7,2.63,2.63,0,0,1,.13-.8c.26-1,1.21-1.55,2.68-1.57.18,0,.46,0,.72,0a1.36,1.36,0,0,0,0-.41c0-.41-.33-.54-1.08-.54a4.6,4.6,0,0,0-1.34.2l-.23.06-.1,0,.23-1.39a6.11,6.11,0,0,1,1.88-.33c1.39,0,2.14.64,2.14,1.82a6.22,6.22,0,0,1-.08,1.22l-.36,2.21-.05.39,0,.31,0,.2,0,.18Zm20-6.13a3.15,3.15,0,0,1,1.45.41l.28-1.64c-.16-.08-.21-.08-.41-.16l-.65-.18a3.16,3.16,0,0,0-.74-.08,3.26,3.26,0,0,0-1.76.31,4.82,4.82,0,0,0-1,.83l-.21-.05L620.4,349l.07-.64h-1.7l-1,6.18h1.62l.59-3.32s.24-.46.34-.62a1,1,0,0,1,.9-.38h.13a9.23,9.23,0,0,0-.08,1.18c0,2,1.14,3.27,2.89,3.27a5.29,5.29,0,0,0,1.41-.2l.29-1.76a2.87,2.87,0,0,1-1.37.42c-1,0-1.52-.73-1.52-1.86,0-1.67.85-2.86,2.06-2.86ZM638.71,347l-.36,2.17a1.68,1.68,0,0,0-1.47-.88,2.43,2.43,0,0,0-2.14,1.42v0l-1-.62.11-.64h-1.73l-1,6.18h1.6l.54-3.32s.41-.46.51-.62a1,1,0,0,1,.73-.38,5.51,5.51,0,0,0-.29,1.82c0,1.55.8,2.58,2,2.58a1.87,1.87,0,0,0,1.49-.7l-.08.62h1.52l1.24-7.6Zm-2,6.13c-.54,0-.83-.41-.83-1.21,0-1.21.52-2.08,1.26-2.08.57,0,.85.44.85,1.21,0,1.23-.51,2.08-1.28,2.08Zm-7.45-1.28a1.24,1.24,0,0,0-.31,0c-.92,0-1.39.36-1.39.93a.58.58,0,0,0,.6.64C629,353.36,629.26,352.72,629.28,351.82Zm1.29,2.75h-1.42l.06-.64a1.89,1.89,0,0,1-1.7.75A1.57,1.57,0,0,1,626,353c0-1.47,1.11-2.37,2.86-2.37.18,0,.46,0,.7,0a1.51,1.51,0,0,0,.07-.41c0-.41-.33-.54-1.1-.54a4.71,4.71,0,0,0-1.34.2l-.21.06-.1,0,.23-1.39a6.11,6.11,0,0,1,1.88-.33c1.39,0,2.11.64,2.11,1.82a4.48,4.48,0,0,1-.08,1.22l-.33,2.21-.05.39,0,.31,0,.2v.18Zm-22.13-4.87a7.39,7.39,0,0,1,1.21.11l.24-1.45c-.47-.05-1.09-.12-1.45-.12-1.8,0-2.39,1-2.39,2.11a1.75,1.75,0,0,0,1.21,1.7c.64.31.75.36.75.64s-.34.62-1,.62a4.25,4.25,0,0,1-1.46-.26l-.19,1.42,0,0,.31.05c.1,0,.23.05.41.07.39,0,.72.06.93.06,1.8,0,2.55-.7,2.55-2.07a1.75,1.75,0,0,0-1.21-1.72c-.7-.31-.77-.36-.77-.64s.3-.55.79-.55Z" transform="translate(-592.4 -335.15)" fill="#1b3771" fill-rule="evenodd"/><path d="M627.2,346.72l-.29,1.64a3.11,3.11,0,0,0-1.44-.41c-1.21,0-2.06,1.19-2.06,2.86,0,1.16.57,1.86,1.52,1.86a3.09,3.09,0,0,0,1.36-.39L626,354a5.54,5.54,0,0,1-1.42.23c-1.75,0-2.83-1.26-2.83-3.3,0-2.7,1.5-4.61,3.63-4.61a3.25,3.25,0,0,1,.75.08l.64.15c.21.08.26.11.42.16ZM622,347.85h-.15c-.54,0-.85.26-1.34,1l.15-1h-1.46l-1,6.18h1.62c.6-3.78.75-4.43,1.52-4.43h.11a6.5,6.5,0,0,1,.61-1.77l0,0ZM612.67,354a3.45,3.45,0,0,1-1.16.2,1.19,1.19,0,0,1-1.29-1.36c0-.16,0-.36,0-.54l.11-.62.07-.49.7-4.23h1.6l-.18.93h.82l-.21,1.52h-.82l-.44,2.58a1.19,1.19,0,0,0,0,.25c0,.31.15.44.54.44a1.05,1.05,0,0,0,.43-.05l-.2,1.37Zm-6.21-4.15a1.8,1.8,0,0,0,1.21,1.72c.67.31.77.42.77.67s-.28.57-.92.57a5,5,0,0,1-1.45-.23l-.23,1.42.08,0,.28.05a1.61,1.61,0,0,0,.44.05,5.14,5.14,0,0,0,.88.06c1.7,0,2.5-.65,2.5-2.06a1.73,1.73,0,0,0-1.14-1.73c-.69-.31-.77-.39-.77-.67s.28-.49.8-.49a10.6,10.6,0,0,1,1.16.08l.23-1.42a9,9,0,0,0-1.42-.13c-1.8,0-2.44,1-2.42,2.09Zm33.07,4.22H638l.08-.59a1.94,1.94,0,0,1-1.49.67c-1.19,0-2-1-2-2.55,0-2.06,1.21-3.81,2.63-3.81a1.83,1.83,0,0,1,1.54.85l.36-2.17h1.6l-1.24,7.6Zm-2.37-1.44c.75,0,1.27-.87,1.27-2.09,0-.79-.29-1.21-.85-1.21-.72,0-1.27.85-1.27,2.06,0,.83.29,1.24.85,1.24ZM617.61,354a5.25,5.25,0,0,1-1.67.26,2.45,2.45,0,0,1-2.73-2.78c0-2.11,1.18-3.68,2.81-3.68a2.07,2.07,0,0,1,2.19,2.24,6.44,6.44,0,0,1-.21,1.54h-3.19a.45.45,0,0,0,0,.18c0,.73.49,1.09,1.42,1.09a3.59,3.59,0,0,0,1.67-.39l-.26,1.54Zm-.9-3.68V350a.71.71,0,0,0-.77-.8c-.52,0-.88.39-1,1.11Zm-16.41,3.81h-1.59l.92-5.84-2.08,5.84h-1.11l-.13-5.79-1,5.79h-1.49l1.26-7.6h2.32l.08,4.72,1.54-4.72h2.53l-1.27,7.6Zm4-2.75c-.16,0-.23,0-.36,0-.91,0-1.37.34-1.37.95a.55.55,0,0,0,.57.62c.67,0,1.13-.62,1.16-1.54Zm1.18,2.75h-1.34l0-.64a2,2,0,0,1-1.7.75,1.5,1.5,0,0,1-1.47-1.68c0-1.52,1-2.39,2.83-2.39a6.06,6.06,0,0,1,.67.05,1.38,1.38,0,0,0,0-.39c0-.41-.28-.56-1-.56a5.49,5.49,0,0,0-1.34.15l-.23.08-.15,0,.23-1.39a6.55,6.55,0,0,1,1.93-.31c1.39,0,2.14.62,2.14,1.81a8.23,8.23,0,0,1-.13,1.23l-.36,2.19-.05.39,0,.31,0,.23,0,.15Zm24.32-2.75c-.18,0-.26,0-.36,0-.93,0-1.39.34-1.39.95a.56.56,0,0,0,.59.62c.64,0,1.13-.62,1.16-1.54Zm1.18,2.75h-1.34l0-.64a2,2,0,0,1-1.7.75,1.5,1.5,0,0,1-1.47-1.68c0-1.52,1-2.39,2.83-2.39a5.42,5.42,0,0,1,.65.05,1.87,1.87,0,0,0,.08-.39c0-.41-.29-.56-1-.56a5.69,5.69,0,0,0-1.37.15l-.21.08-.15,0,.23-1.39a6.55,6.55,0,0,1,1.93-.31c1.39,0,2.12.62,2.12,1.81a5.45,5.45,0,0,1-.13,1.23l-.34,2.19-.05.39,0,.31,0,.23v.15Zm4.33-6.23h-.15c-.54,0-.85.26-1.34,1l.15-1H632.5l-1,6.18h1.6c.59-3.78.75-4.43,1.52-4.43h.1a6.49,6.49,0,0,1,.62-1.77l-.05,0Z" transform="translate(-592.4 -335.15)" fill="#fff" fill-rule="evenodd"/></svg>