<svg xmlns="http://www.w3.org/2000/svg" xmlns:xlink="http://www.w3.org/1999/xlink" viewBox="0 0 49.2 30.9"><defs><linearGradient id="a" x1="592.72" y1="350.16" x2="641.92" y2="350.16" gradientUnits="userSpaceOnUse"><stop offset="0" stop-color="#8a008d"/><stop offset="0.21" stop-color="#430044"/><stop offset="1"/></linearGradient><linearGradient id="b" x1="18.54" y1="15.53" x2="23.97" y2="15.53" xlink:href="#a"/><linearGradient id="c" x1="616.64" y1="350.18" x2="626.67" y2="350.18" xlink:href="#a"/><linearGradient id="d" x1="625.97" y1="350.23" x2="637.97" y2="350.23" xlink:href="#a"/><linearGradient id="e" x1="600.17" y1="350.22" x2="611.96" y2="350.22" xlink:href="#a"/><linearGradient id="f" x1="596.67" y1="347.44" x2="604.78" y2="347.44" xlink:href="#a"/></defs><path d="M596.19,336.56a1.56,1.56,0,0,0-1.58,1.54v24.11a1.56,1.56,0,0,0,1.58,1.54h42.26a1.56,1.56,0,0,0,1.58-1.54V338.1a1.56,1.56,0,0,0-1.58-1.54Zm0-1.85h42.26a3.44,3.44,0,0,1,3.47,3.39v24.11a3.44,3.44,0,0,1-3.47,3.39H596.19a3.43,3.43,0,0,1-3.47-3.39V338.1A3.43,3.43,0,0,1,596.19,334.71Z" transform="translate(-592.72 -334.71)" fill="url(#a)"/><polygon points="18.54 21.66 20.63 9.4 23.97 9.4 21.88 21.66 18.54 21.66" fill="url(#b)"/><path d="M626.67,344.37a8.58,8.58,0,0,0-3-.52c-3.3,0-5.62,1.67-5.64,4,0,1.76,1.66,2.74,2.92,3.33s1.74,1,1.73,1.52c0,.82-1,1.2-2,1.2a7,7,0,0,1-3.15-.65l-.43-.19-.47,2.74a10.47,10.47,0,0,0,3.72.66c3.52,0,5.8-1.65,5.82-4.19,0-1.4-.88-2.46-2.8-3.33-1.17-.57-1.89-.95-1.88-1.52s.61-1.06,1.91-1.06a6.37,6.37,0,0,1,2.5.47l.3.15.46-2.66" transform="translate(-592.72 -334.71)" fill="url(#c)"/><path d="M635.26,344.1h-2.58a1.66,1.66,0,0,0-1.75,1l-5,11.23h3.51s.57-1.51.7-1.84h4.28c.1.43.41,1.83.41,1.83H638ZM631.17,352c.27-.71,1.33-3.43,1.33-3.43s.27-.71.44-1.17l.23,1.06s.64,2.93.77,3.54Z" transform="translate(-592.72 -334.71)" fill="url(#d)"/><path d="M608.42,344.1l-3.27,8.36-.35-1.7a9.6,9.6,0,0,0-4.63-5.14l3,10.72h3.54L612,344.1h-3.54" transform="translate(-592.72 -334.71)" fill="url(#e)"/><path d="M602.1,344.1h-5.39l0,.26c4.19,1,7,3.47,8.11,6.41l-1.17-5.63a1.4,1.4,0,0,0-1.51-1" transform="translate(-592.72 -334.71)" fill="url(#f)"/></svg>